<svg width="529" height="235" viewBox="0 0 529 235" fill="none" xmlns="http://www.w3.org/2000/svg">
<path d="M0.997559 51.3333L57.6255 0V234.667L22.7163 200.177V42.3958L0.997559 51.3333Z" fill="#CB1200"/>
<path d="M92.5165 42.8542H160.061V35.4062H116.737L92.5165 0L195.197 0V78.1458H161.88L195.197 111.833V174.969L136.068 234.667L94.1085 192.615V123.635L129.359 107.708V180.927L142.094 193.76L160.061 175.771V110.917L92.5165 42.8542Z" fill="#CB1200"/>
<path d="M222.925 192.615H258.061V234.667H222.925V192.615Z" fill="#CB1200"/>
<path d="M294.43 192.615V0L395.292 0V174.969L336.162 234.667L294.43 192.615ZM329.34 180.927L342.416 193.76L361.065 174.969H360.383V35.4062H329.34V180.927Z" fill="#CB1200"/>
<path d="M428.136 192.615V83.0729L463.045 118.479V180.927L476.122 193.76L493.406 176.458V119.625L428.818 54.6563V0.229167L528.77 0L528.543 174.281L528.998 174.969L493.179 211.177L469.868 234.667L428.136 192.615ZM464.069 55.5729L493.633 85.3646V35.6354H464.069V55.5729Z" fill="#CB1200"/>
</svg>
