<svg width="1368" height="379" viewBox="0 0 1368 379" fill="none" xmlns="http://www.w3.org/2000/svg">
<g clip-path="url(#clip0_34_16)">
<path d="M1375.5 54.2825V386.5H-7.5V25.4735L29.0753 57.3159L34.2729 61.8409L39.2206 57.044L77.9396 19.5048L115.718 56.9836L121.063 62.286L126.344 56.9211L162.935 19.756L198.593 56.8564L203.873 62.3502L209.282 56.9836L246.937 19.6267L283.656 56.9211L289.065 62.4152L294.407 56.8564L330.357 19.4523L371.959 57.2128L377.055 61.8374L382.1 57.1585L423.208 19.0361L468.132 57.3648L473.153 61.6488L478.041 57.2128L520.053 19.0808L563.018 57.2653L568.107 61.7885L573.1 57.1585L614.107 19.1292L657.018 57.2653L662.476 62.1163L667.471 56.7893L702.576 19.3504L747.132 57.3648L751.906 61.4376L756.757 57.4577L803.752 18.904L845.959 57.2128L850.752 61.5632L855.757 57.4577L902.642 18.9948L942.84 57.1022L947.736 61.7434L952.868 57.3648L996.793 19.889L1024 56.1598L1029.05 62.8931L1035.16 57.1022L1075.4 18.9522L1123.3 57.5018L1127.91 61.2176L1132.6 57.5856L1182.77 18.6664L1228.13 57.3648L1233.38 61.8444L1238.28 56.9836L1275.74 19.8265L1309.46 56.7199L1315.39 63.2022L1320.87 56.3338L1349 21.0334L1375.5 54.2825Z" fill="black" stroke="white" stroke-width="15"/>
</g>
<defs>
<clipPath id="clip0_34_16">
<rect width="1368" height="379" fill="white"/>
</clipPath>
</defs>
</svg>
