<svg width="1368" height="379" viewBox="0 0 1368 379" fill="none" xmlns="http://www.w3.org/2000/svg">
<g clip-path="url(#clip0_10_255)">
<path d="M1375.5 54.2825V386.5H-7.5V25.4735L29.0753 57.3159L34.2729 61.8409L39.2206 57.044L77.9396 19.5048L115.718 56.9836L121.063 62.286L126.344 56.9211L162.935 19.756L198.593 56.8564L203.873 62.3502L209.282 56.9836L246.937 19.6267L283.656 56.9211L289.065 62.4152L294.407 56.8564L330.357 19.4523L371.959 57.2128L377.055 61.8374L382.1 57.1585L423.208 19.0361L468.132 57.3648L473.153 61.6488L478.041 57.2128L520.053 19.0808L563.018 57.2653L568.107 61.7885L573.1 57.1585L614.107 19.1292L657.018 57.2653L662.476 62.1163L667.471 56.7893L702.576 19.3504L747.132 57.3648L751.906 61.4376L756.757 57.4577L803.752 18.904L845.959 57.2128L850.752 61.5632L855.757 57.4577L902.642 18.9948L942.84 57.1022L947.736 61.7434L952.868 57.3648L996.793 19.889L1024 56.1598L1029.05 62.8931L1035.16 57.1022L1075.4 18.9522L1123.3 57.5018L1127.91 61.2176L1132.6 57.5856L1182.77 18.6664L1228.13 57.3648L1233.38 61.8444L1238.28 56.9836L1275.74 19.8265L1309.46 56.7199L1315.39 63.2022L1320.87 56.3338L1349 21.0334L1375.5 54.2825Z" fill="black" stroke="white" stroke-width="15"/>
<path d="M1286.25 181.348C1286.25 181.348 1279.8 180.948 1274.24 190.445C1272.62 193.211 1271.91 195.204 1271.71 196.648C1266.68 195.619 1261.21 194.482 1255.29 193.236L1267.94 179.348C1267.94 179.348 1261.65 177.917 1254.62 186.395C1252.46 189.005 1251.44 190.929 1251.07 192.346C1246.77 191.451 1242.73 190.669 1238.95 190.001L1241.72 170.199C1241.72 170.199 1235.72 172.574 1234.71 183.526C1234.48 185.439 1234.51 187.375 1234.82 189.277C1209.66 185.126 1196.47 185.972 1189.58 187.996L1075.63 128.227L1077.35 125.025L1038.13 101.041L1025.51 124.413L1067.1 144.073L1068.83 140.876L1181.28 203.39C1183.29 209.995 1189.39 220.861 1205.19 238.353C1203.96 239.169 1202.43 240.806 1200.6 243.851C1194.85 253.464 1198.25 259.007 1198.25 259.007L1207.82 241.222C1209.72 243.285 1211.76 245.433 1213.92 247.666C1215.81 249.61 1217.8 251.618 1219.9 253.691C1218.42 254.7 1217.06 255.88 1215.85 257.207C1208.16 265.344 1210.26 271.484 1210.26 271.484L1222.97 256.752C1227.11 260.853 1230.88 264.647 1234.36 268.153C1233.01 268.703 1231.24 270.442 1229.22 274.88C1224.58 285.078 1228.57 290.199 1228.57 290.199L1236.53 270.346C1271.98 306.184 1273.9 310.374 1279.62 305.879C1286.13 300.791 1328.5 222.276 1329.2 214.036C1329.82 206.779 1325.26 207.481 1275.75 197.469L1286.25 181.348ZM1283.04 280.351C1283.25 280.467 1283.44 280.624 1283.6 280.814C1283.75 281.003 1283.87 281.221 1283.94 281.455C1284.01 281.689 1284.03 281.935 1284 282.178C1283.98 282.421 1283.91 282.656 1283.79 282.871L1276.78 295.851C1276.67 296.077 1276.52 296.278 1276.33 296.442C1276.14 296.607 1275.92 296.731 1275.68 296.808C1275.44 296.884 1275.19 296.912 1274.94 296.889C1274.69 296.866 1274.45 296.792 1274.23 296.673C1274.01 296.554 1273.81 296.391 1273.66 296.194C1273.5 295.998 1273.39 295.772 1273.32 295.53C1273.25 295.288 1273.24 295.035 1273.27 294.787C1273.3 294.538 1273.39 294.299 1273.52 294.083L1280.52 281.103C1280.64 280.889 1280.79 280.699 1280.98 280.545C1281.17 280.391 1281.39 280.276 1281.62 280.206C1281.86 280.136 1282.1 280.113 1282.35 280.138C1282.59 280.163 1282.82 280.235 1283.04 280.351V280.351ZM1278.18 276.313C1278.61 276.549 1278.93 276.946 1279.07 277.418C1279.21 277.89 1279.16 278.398 1278.93 278.833L1271.92 291.813C1271.69 292.247 1271.29 292.57 1270.82 292.711C1270.35 292.852 1269.84 292.8 1269.4 292.565C1268.97 292.331 1268.65 291.934 1268.51 291.461C1268.36 290.989 1268.42 290.479 1268.65 290.045L1275.66 277.074C1275.89 276.64 1276.29 276.317 1276.76 276.174C1277.23 276.032 1277.74 276.081 1278.18 276.313V276.313ZM1273.31 272.279C1273.75 272.515 1274.07 272.912 1274.21 273.384C1274.35 273.856 1274.3 274.364 1274.07 274.799L1267.05 287.78C1266.81 288.214 1266.42 288.537 1265.94 288.678C1265.47 288.819 1264.96 288.767 1264.53 288.532C1264.09 288.298 1263.77 287.901 1263.63 287.428C1263.49 286.956 1263.54 286.446 1263.77 286.012L1270.78 273.032C1270.9 272.816 1271.06 272.625 1271.25 272.47C1271.44 272.315 1271.66 272.199 1271.89 272.129C1272.13 272.059 1272.37 272.036 1272.62 272.062C1272.86 272.088 1273.1 272.161 1273.31 272.279V272.279ZM1217.45 240.504C1202.15 227.524 1195.23 216.568 1192.09 209.02L1227.81 228.309C1227.96 244.046 1242.14 261.471 1217.45 240.504V240.504ZM1267.96 238.897C1266.3 241.969 1263.77 244.48 1260.69 246.114C1257.6 247.747 1254.11 248.428 1250.63 248.072C1247.16 247.716 1243.87 246.338 1241.19 244.112C1238.5 241.887 1236.53 238.914 1235.53 235.569C1234.53 232.225 1234.54 228.659 1235.57 225.323C1236.6 221.987 1238.59 219.03 1241.3 216.827C1244.01 214.624 1247.3 213.274 1250.78 212.947C1254.25 212.62 1257.75 213.331 1260.82 214.99C1264.93 217.214 1268 220.982 1269.34 225.465C1270.67 229.948 1270.18 234.779 1267.96 238.897V238.897ZM1313.99 232.266C1311.6 236.712 1304.73 232.989 1307.12 228.556C1309.52 224.122 1316.39 227.832 1313.99 232.266V232.266ZM1236.13 213.133L1200.53 193.904C1208.57 192.441 1221.45 192.3 1240.44 197.9C1271.38 207.019 1249.39 204.774 1236.13 213.133V213.133ZM1319.32 221.619C1316.93 226.065 1310.05 222.338 1312.45 217.904C1314.84 213.471 1321.71 217.185 1319.32 221.619V221.619Z" fill="white"/>
<path d="M1268.56 112.483C1264.47 105.299 1219.21 115.61 1216.39 117.786C1212.48 120.826 1215.89 121.691 1216.88 123.422L1064.81 207.756C1061.86 203.697 1059.67 198.33 1062.07 192.632C1067.07 180.711 1076.97 184.137 1076.97 184.137C1076.97 184.137 1086.3 178.581 1069.98 171.886C1068.45 171.253 1066.84 170.803 1065.2 170.546C1066.96 168.19 1076.35 156.295 1086.91 155.448C1098.51 154.524 1066.06 151.815 1056.89 170.909C1045.86 173.526 1036.49 184.031 1032.04 192.101C1031.67 192.774 1031.27 193.427 1030.83 194.056C1029.64 190.615 1025.61 185.796 1016.27 179.072C1016.27 179.072 1008.26 174.713 998.183 181.092C998.183 181.092 1011.49 181.044 1014.29 186.754C1016.62 191.497 1018.54 198.206 1021.75 201.078C1016.16 203.033 1009.73 202.284 1004 199.837C999.997 198.128 988.778 198.163 979.354 203.226C977.907 199.224 971.323 197.454 946.501 216.506C946.501 216.506 937.273 225.645 941.842 242C941.842 242 949.417 218.181 958.348 216.717C961.584 216.183 964.747 215.746 967.637 215.14C962.491 225.746 963.274 242.608 978.144 268.684C993.635 295.856 1008.3 304.766 1020.33 305.067C1017.78 307.382 1015.26 310.263 1012.55 313.148C1006.36 319.763 982.354 312.804 982.354 312.804C993.398 325.691 1006.13 323.103 1006.13 323.103C1040.86 311.34 1037.89 304.495 1033.83 301.674C1043.71 296.295 1049.95 285.974 1050.54 281.46C1051.4 274.934 1054.28 268.685 1059.3 264.916C1060.78 268.98 1066.48 273.195 1070.15 277.086C1074.52 281.714 1069.77 294.161 1069.77 294.161C1079.28 286.964 1078.01 277.924 1078.01 277.924C1075.72 269.466 1073.37 264.278 1071.15 261.258C1071.25 261.263 1071.35 261.268 1071.45 261.273C1080.53 261.551 1094.08 258.889 1102 251.009C1123.31 253.23 1137.7 223.483 1130.96 233.051C1124.69 241.954 1109.03 243.851 1106.7 244.086C1107.41 242.426 1107.89 240.681 1108.15 238.896C1110.7 221.458 1101.17 226.65 1101.17 226.65C1101.17 226.65 1099.08 236.913 1086.27 235.146C1079.41 234.204 1075.85 228.527 1074 223.448L1223.82 135.601C1229.08 132.517 1228.49 138.745 1234.43 139.328C1240.38 139.912 1246.65 126.596 1257.49 123.176C1258.29 122.92 1273.98 121.974 1268.56 112.483ZM1037.96 288.339C1041.21 294.04 1032.38 299.083 1029.12 293.382C1025.87 287.68 1034.71 282.637 1037.96 288.339V288.339ZM1023.59 294.471C1025.72 298.212 1019.92 301.521 1017.79 297.78C1015.66 294.04 1021.45 290.731 1023.59 294.471V294.471ZM1017.16 258.256C1016.62 258.566 1016.02 258.766 1015.4 258.845C1014.78 258.924 1014.15 258.879 1013.55 258.714C1012.95 258.55 1012.38 258.267 1011.89 257.884C1011.4 257.501 1010.99 257.024 1010.68 256.481L1006.43 249.04C1005.81 247.945 1005.64 246.647 1005.98 245.431C1006.31 244.214 1007.11 243.18 1008.2 242.555C1009.3 241.93 1010.6 241.766 1011.81 242.098C1013.03 242.431 1014.06 243.233 1014.69 244.328L1018.93 251.773C1019.55 252.868 1019.71 254.164 1019.38 255.379C1019.05 256.593 1018.25 257.627 1017.16 258.256V258.256ZM1011.6 292.074C1012.73 294.061 1009.65 295.82 1008.49 293.831C1007.33 291.842 1010.46 290.094 1011.6 292.074V292.074ZM1045.69 253.716C1042.39 255.602 1038.6 256.465 1034.8 256.196C1031.01 255.927 1027.38 254.539 1024.37 252.206C1021.36 249.873 1019.12 246.701 1017.91 243.091C1016.71 239.48 1016.6 235.594 1017.61 231.923C1018.61 228.252 1020.68 224.962 1023.55 222.467C1026.43 219.973 1029.98 218.388 1033.75 217.911C1037.53 217.434 1041.36 218.088 1044.76 219.789C1048.16 221.491 1050.99 224.164 1052.87 227.47C1055.4 231.903 1056.06 237.158 1054.72 242.08C1053.37 247.003 1050.12 251.188 1045.69 253.716V253.716Z" fill="#CB1200"/>
<path d="M128.392 96.8214C124.224 103.667 154.208 137.202 157.378 138.574C161.792 140.464 160.922 137.161 161.927 135.514L304.816 224.881C302.755 229.28 299.233 233.659 293.277 234.301C280.819 235.652 279.08 225.654 279.08 225.654C279.08 225.654 269.991 220.353 271.971 237.328C272.155 238.928 272.528 240.501 273.08 242.014C270.256 241.627 255.763 239.248 250.084 230.685C243.857 221.284 256.793 250.076 277.285 248.885C284.681 257.01 297.99 260.029 306.921 260.013C307.663 260.007 308.406 260.043 309.144 260.118C306.788 262.748 304.59 268.421 303.274 279.498C303.274 279.498 303.339 288.342 313.477 293.889C313.477 293.889 307.189 282.627 310.718 277.573C313.647 273.374 318.434 268.595 319.363 264.526C323.645 268.349 326.026 274.15 326.64 280.155C327.071 284.355 332.366 293.852 341.083 299.467C338.369 302.572 339.958 308.987 367.764 321.091C367.764 321.091 379.846 324.627 391.568 313.076C391.568 313.076 367.816 317.832 362.383 310.947C360.411 308.453 358.556 305.977 356.685 303.81C368.094 303.195 382.025 294.618 397.157 269.769C412.927 243.88 413.599 227.264 408.207 216.92C411.366 217.994 414.993 218.781 418.711 219.724C427.227 221.869 432.592 245.491 432.592 245.491C438.337 230.078 430.165 220.494 430.165 220.494C403.889 196.564 399.478 202.295 398.992 207.064C389.797 201.215 378.115 200.766 374.009 202.382C368.073 204.718 361.42 205.205 355.869 202.72C358.621 199.559 359.52 192.747 361.097 187.808C362.972 181.935 375.752 180.113 375.752 180.113C365.187 175.428 358.117 180.747 358.117 180.747C352.023 186.665 348.724 191.088 347.209 194.394C347.164 194.304 347.122 194.218 347.077 194.128C343.053 186.3 334.435 176.057 324.034 173.038C315.919 153.932 283.936 155.685 295.213 156.91C305.706 158.047 314.666 170.438 315.958 172.303C314.22 172.486 312.513 172.893 310.879 173.513C294.895 179.534 303.772 185.182 303.772 185.182C303.772 185.182 313.454 182.134 317.967 193.825C320.389 200.085 317.246 205.768 313.807 209.72L168.996 123.91C163.912 120.897 169.471 118.476 167.175 113.161C164.879 107.845 150.644 108.777 142.656 101.191C142.063 100.631 133.9 87.7773 128.392 96.8214ZM385.746 209.82C389.056 204.389 397.48 209.515 394.172 214.949C390.863 220.383 382.437 215.254 385.746 209.82V209.82ZM397.693 219.129C399.863 215.566 405.393 218.933 403.222 222.496C401.051 226.06 395.524 222.697 397.693 219.129V219.129ZM370.002 241.581C370.519 241.895 370.97 242.308 371.327 242.796C371.685 243.284 371.942 243.838 372.085 244.426C372.228 245.014 372.253 245.625 372.159 246.222C372.066 246.82 371.855 247.394 371.539 247.91L367.222 255.002C366.586 256.045 365.563 256.794 364.375 257.083C363.188 257.372 361.935 257.178 360.891 256.543C359.847 255.908 359.099 254.884 358.81 253.697C358.521 252.51 358.716 251.257 359.351 250.214L363.674 243.124C364.312 242.084 365.335 241.338 366.52 241.049C367.706 240.76 368.957 240.952 370.002 241.581V241.581ZM401.289 230.425C402.441 228.528 405.379 230.317 404.236 232.232C403.092 234.148 400.142 232.314 401.289 230.425V230.425ZM352.76 219.517C355.911 221.435 358.421 224.243 359.975 227.588C361.528 230.932 362.055 234.662 361.488 238.306C360.921 241.951 359.286 245.345 356.789 248.06C354.293 250.776 351.047 252.69 347.463 253.562C343.879 254.433 340.117 254.222 336.653 252.956C333.189 251.69 330.179 249.425 328.003 246.447C325.827 243.47 324.583 239.914 324.428 236.23C324.274 232.545 325.215 228.898 327.134 225.748C329.707 221.524 333.852 218.495 338.658 217.327C343.464 216.158 348.537 216.946 352.76 219.517V219.517Z" fill="#CB1200"/>
<path fill-rule="evenodd" clip-rule="evenodd" d="M186.587 245.38C190.397 245.168 194.141 244.333 197.672 242.907C198.93 246.459 208.689 251.811 242.291 259.068C242.291 259.068 260.246 261.376 272.825 248.948C272.825 248.948 241.329 255.871 231.536 249.653C221.981 243.587 213.689 237.55 204.714 237.5C205.13 236.716 205.354 235.842 205.365 234.949C205.377 234.057 205.176 233.172 204.781 232.369C201.047 224.057 185.145 231.635 173.412 215.677C218.271 194.901 314.669 150.562 327.729 144.513L329.252 147.905L372.559 131.235L361.432 106.417L320.179 127.671L321.702 131.062L188.321 189.257C188.819 182.401 187.624 174.207 180.524 169.635C179.467 168.958 178.435 168.366 177.432 167.853L177.633 167.759C183.934 162.103 184.9 151.547 186.732 140.152C188.564 128.758 214.548 114.523 214.548 114.523C196.957 112.17 186.814 125.494 186.814 125.494C172.584 148.69 168.652 159.874 168.896 165.049C162.195 164.275 156.496 167.217 151.428 172.835C147.382 176.463 144.408 177.722 142.534 178.452C141.263 174.911 139.551 164.486 124.007 154.625C124.007 154.625 105.646 138.708 89.3999 145.818C89.3999 145.818 103.874 150.614 120.887 159.228C124.966 167.945 133.232 176.58 133.29 188.025C127.276 189.896 120.427 189.664 112.906 187.455C109.158 186.359 103.994 186.457 98.7319 188.015C101.088 183.035 99.5478 175.232 53.3606 188.358C53.3606 188.358 37.829 194.547 35.5105 212.384C35.5105 212.384 56.0768 190.972 67.5643 192.365C74.8366 193.246 81.6868 194.36 87.538 193.906C77.1019 202.437 70.9674 219.098 83.4351 246.855C94.75 272.069 108.901 279.692 121.592 278.777C117.563 283.246 113.902 289.185 109.833 295.258C102.685 305.953 70.341 307.494 70.341 307.494C86.6219 318.674 102.883 310.161 102.883 310.161C142.064 284.176 142.215 275.721 137.713 272.99C142.728 269.693 147.034 265.419 150.382 260.414C153.53 255.627 156.838 252.21 160.125 249.793C161.289 256.453 166.249 264.384 169.507 272.324C171.231 283.765 156.514 311.841 156.514 311.841C174.605 304.451 176.441 285.993 176.441 285.993C176.389 264.689 174.983 251.957 173.017 244.585L186.587 245.38ZM87.4086 201.634C87.417 201.884 87.4742 202.131 87.577 202.361C87.7866 202.823 88.1679 203.184 88.6379 203.367C89.1078 203.549 89.6281 203.537 90.0852 203.334L103.748 197.207C104.182 196.988 104.514 196.607 104.674 196.144C104.835 195.681 104.812 195.171 104.609 194.721C104.407 194.271 104.041 193.915 103.588 193.727C103.135 193.54 102.63 193.535 102.177 193.714L88.5162 199.844C88.29 199.945 88.0864 200.09 87.9168 200.272C87.7472 200.453 87.6151 200.666 87.5279 200.9C87.4406 201.134 87.4001 201.383 87.4086 201.634ZM81.5854 210.55C81.4094 211.022 81.4265 211.546 81.633 212.01L81.6365 212.017C81.8462 212.477 82.2267 212.837 82.6951 213.018C83.1635 213.199 83.6819 213.187 84.1374 212.984L97.8037 206.856C98.0412 206.763 98.257 206.621 98.4378 206.44C98.6187 206.259 98.7609 206.042 98.8559 205.803C98.9509 205.565 98.9968 205.308 98.9907 205.05C98.9846 204.791 98.9267 204.536 98.8205 204.3C98.7142 204.064 98.5619 203.851 98.3726 203.675C98.1834 203.499 97.9611 203.363 97.7193 203.275C97.4774 203.188 97.2211 203.15 96.9656 203.165C96.7101 203.18 96.4609 203.247 96.2329 203.363L82.5721 209.493C82.1162 209.698 81.7614 210.078 81.5854 210.55ZM82.477 220.724L96.1378 214.595C96.3639 214.493 96.5676 214.348 96.7371 214.167C96.9067 213.985 97.0389 213.772 97.1261 213.538C97.2133 213.304 97.2538 213.055 97.2454 212.804C97.2369 212.554 97.1797 212.307 97.0769 212.078C96.9741 211.848 96.8278 211.641 96.6464 211.468C96.4649 211.295 96.2518 211.159 96.0192 211.069C95.7867 210.978 95.5392 210.935 95.291 210.941C95.0427 210.946 94.7986 211.002 94.5725 211.103L80.91 217.229C80.4752 217.448 80.1427 217.829 79.9816 218.292C79.8206 218.755 79.8434 219.264 80.0454 219.715C80.2473 220.165 80.6128 220.522 81.0657 220.71C81.5187 220.898 82.0242 220.903 82.477 220.724ZM157.406 176.416C155.683 172.584 161.544 169.952 163.267 173.784C164.99 177.616 159.126 180.249 157.406 176.416ZM168.829 174.944C167.11 171.111 172.968 168.485 174.691 172.317C176.415 176.149 170.552 178.776 168.829 174.944ZM113.909 240.85C115.064 241.298 116.343 241.269 117.466 240.768C118.587 240.262 119.459 239.326 119.891 238.166C120.323 237.006 120.28 235.715 119.772 234.576L116.298 226.833C116.056 226.252 115.701 225.725 115.255 225.283C114.809 224.841 114.281 224.492 113.701 224.258C113.122 224.024 112.503 223.909 111.881 223.919C111.259 223.93 110.647 224.067 110.081 224.321C109.515 224.575 109.006 224.941 108.585 225.398C108.164 225.855 107.839 226.394 107.628 226.983C107.418 227.571 107.328 228.197 107.362 228.824C107.396 229.451 107.554 230.067 107.827 230.634L111.301 238.377C111.816 239.513 112.753 240.402 113.909 240.85ZM137.579 234.817C140.305 235.296 143.103 234.949 145.617 233.821C148.988 232.309 151.611 229.501 152.91 226.015C154.209 222.528 154.076 218.65 152.542 215.231C151.398 212.681 149.533 210.523 147.185 209.03C144.836 207.537 142.109 206.775 139.348 206.841C136.587 206.907 133.917 207.798 131.674 209.401C129.431 211.005 127.717 213.248 126.749 215.848C125.78 218.448 125.601 221.288 126.233 224.009C126.865 226.729 128.28 229.208 130.3 231.132C132.319 233.056 134.853 234.338 137.579 234.817Z" fill="white"/>
<path d="M481 175.5L523.471 137V313L497.289 287.133V168.797L481 175.5Z" fill="#CB1200"/>
<path d="M549.639 169.141H600.297V163.555H567.805L549.639 137H626.65V195.609H601.662L626.65 220.875V268.227L582.303 313L550.833 281.461V229.727L577.271 217.781V272.695L586.823 282.32L600.297 268.828V220.187L549.639 169.141Z" fill="#CB1200"/>
<path d="M647.445 281.461H673.798V313H647.445V281.461Z" fill="#CB1200"/>
<path d="M701.075 281.461V137H776.721V268.227L732.374 313L701.075 281.461ZM727.257 272.695L737.064 282.32L751.051 268.227H750.539V163.555H727.257V272.695Z" fill="#CB1200"/>
<path d="M801.354 281.461V199.305L827.536 225.859V272.695L837.343 282.32L850.306 269.344V226.719L801.866 177.992V137.172L876.829 137L876.659 267.711L877 268.227L850.136 295.383L832.653 313L801.354 281.461ZM828.303 178.68L850.477 201.023V163.727H828.303V178.68Z" fill="#CB1200"/>
</g>
<defs>
<clipPath id="clip0_10_255">
<rect width="1368" height="379" fill="white"/>
</clipPath>
</defs>
</svg>
