<svg width="1865" height="515" viewBox="0 0 1865 515" fill="none" xmlns="http://www.w3.org/2000/svg">
<path d="M1854.66 61.0446V504.001H10.6641V22.6327L59.4312 65.0892L66.3613 71.1226L72.9582 64.7266L124.584 14.6743L174.954 64.6461L182.081 71.7159L189.123 64.5628L237.911 15.0093L285.454 64.4765L292.494 71.8016L299.707 64.6461L349.914 14.8369L398.871 64.5628L406.084 71.8883L413.207 64.4765L461.139 14.6044L516.61 64.9517L523.403 71.1179L530.13 64.8793L584.941 14.0494L644.84 65.1544L651.535 70.8664L658.052 64.9517L714.068 14.109L771.354 65.0217L778.14 71.0527L784.797 64.8793L839.474 14.1736L896.688 65.0217L903.966 71.4898L910.625 64.3871L957.432 14.4685L1016.84 65.1544L1023.2 70.5847L1029.67 65.2783L1092.33 13.8732L1148.61 64.9517L1155 70.7523L1161.67 65.2783L1224.19 13.9943L1277.78 64.8043L1284.31 70.9925L1291.15 65.1544L1349.72 15.1866L1386 63.5477L1392.73 72.5255L1400.88 64.8043L1454.53 13.9375L1518.39 65.3371L1524.55 70.2915L1530.79 65.4488L1597.7 13.5566L1658.17 65.1544L1665.17 71.1272L1671.71 64.6461L1721.65 15.1034L1766.62 64.2944L1774.52 72.9375L1781.82 63.7797L1819.33 16.7124L1854.66 61.0446Z" fill="black" stroke="white" stroke-width="20"/>
</svg>
