<svg width="450" height="277" viewBox="0 0 450 277" fill="none" xmlns="http://www.w3.org/2000/svg">
<path fill-rule="evenodd" clip-rule="evenodd" d="M201.45 185.84C206.529 185.557 211.521 184.444 216.23 182.544C217.907 187.279 230.918 194.415 275.721 204.092C275.721 204.092 299.661 207.168 316.433 190.598C316.433 190.598 274.438 199.829 261.381 191.538C248.641 183.45 237.586 175.4 225.619 175.334C226.174 174.289 226.472 173.123 226.487 171.933C226.502 170.743 226.235 169.563 225.708 168.493C220.73 157.41 199.527 167.515 183.882 146.236C243.694 118.535 372.226 59.4165 389.639 51.3516L391.67 55.8739L449.412 33.6473L434.576 0.556404L379.572 28.8948L381.603 33.417L203.761 111.01C204.426 101.868 202.831 90.9435 193.365 84.8468C191.956 83.9444 190.581 83.1549 189.242 82.4708L189.511 82.3462C197.912 74.8042 199.2 60.7294 201.642 45.537C204.085 30.3447 238.73 11.3642 238.73 11.3642C215.276 8.22741 201.752 25.9929 201.752 25.9929C182.779 56.9212 177.536 71.8321 177.862 78.7322C168.926 77.7004 161.329 81.6229 154.57 89.1134C149.176 93.9518 145.211 95.6299 142.712 96.6037C141.017 91.8818 138.734 77.9824 118.009 64.8334C118.009 64.8334 93.5279 43.6107 71.8665 53.092C71.8665 53.092 91.1656 59.4862 113.849 70.9712C119.288 82.5937 130.309 94.1073 130.386 109.367C122.368 111.862 113.236 111.552 103.208 108.607C98.2106 107.146 91.3248 107.277 84.3092 109.355C87.4509 102.715 85.397 92.3095 23.8141 109.812C23.8141 109.812 3.10529 118.064 0.0140389 141.846C0.0140389 141.846 27.4358 113.296 42.7524 115.154C52.4488 116.329 61.5824 117.814 69.384 117.209C55.4691 128.583 47.2899 150.798 63.9135 187.807C79.0001 221.425 97.8682 231.59 114.789 230.37C109.417 236.329 104.537 244.247 99.1111 252.345C89.5794 266.605 46.4547 268.659 46.4547 268.659C68.1626 283.566 89.8445 272.216 89.8445 272.216C142.085 237.569 142.287 226.296 136.284 222.654C142.97 218.258 148.711 212.559 153.176 205.886C157.374 199.504 161.783 194.947 166.166 191.725C167.718 200.605 174.332 211.18 178.675 221.766C180.974 237.021 161.352 274.455 161.352 274.455C185.474 264.602 187.921 239.991 187.921 239.991C187.853 211.586 185.977 194.61 183.356 184.781L201.45 185.84ZM69.2114 127.512C69.2227 127.846 69.299 128.176 69.4361 128.481C69.7155 129.098 70.2239 129.58 70.8505 129.823C71.477 130.066 72.1708 130.05 72.7803 129.779L90.997 121.611C91.5761 121.318 92.0187 120.81 92.2327 120.192C92.4466 119.575 92.4154 118.895 92.1455 118.295C91.8757 117.695 91.388 117.22 90.7839 116.97C90.1799 116.72 89.5061 116.714 88.9026 116.952L70.6882 125.125C70.3867 125.26 70.1152 125.454 69.8891 125.696C69.663 125.938 69.4867 126.223 69.3705 126.534C69.2542 126.846 69.2002 127.178 69.2114 127.512ZM61.4472 139.4C61.2125 140.029 61.2353 140.729 61.5106 141.347L61.5153 141.357C61.795 141.97 62.3023 142.45 62.9269 142.692C63.5514 142.933 64.2426 142.917 64.8499 142.646L83.0716 134.476C83.3883 134.351 83.676 134.162 83.9171 133.92C84.1582 133.679 84.3478 133.39 84.4745 133.072C84.6012 132.753 84.6624 132.411 84.6542 132.067C84.6461 131.722 84.5689 131.382 84.4273 131.067C84.2856 130.752 84.0825 130.469 83.8302 130.234C83.5778 129.999 83.2815 129.818 82.959 129.701C82.6366 129.584 82.2947 129.534 81.9541 129.554C81.6135 129.574 81.2812 129.664 80.9772 129.818L62.7628 137.991C62.1549 138.265 61.6819 138.771 61.4472 139.4ZM62.636 152.967L80.8504 144.793C81.1519 144.658 81.4234 144.464 81.6495 144.223C81.8756 143.981 82.0518 143.696 82.1681 143.385C82.2844 143.073 82.3384 142.741 82.3272 142.407C82.3159 142.072 82.2396 141.743 82.1025 141.437C81.9655 141.132 81.7705 140.856 81.5285 140.625C81.2865 140.394 81.0024 140.213 80.6923 140.093C80.3822 139.972 80.0523 139.914 79.7213 139.922C79.3903 139.929 79.0648 140.003 78.7633 140.138L60.5466 148.306C59.967 148.598 59.5236 149.105 59.3088 149.723C59.0941 150.34 59.1246 151.02 59.3938 151.621C59.6631 152.221 60.1504 152.696 60.7543 152.947C61.3583 153.198 62.0323 153.205 62.636 152.967ZM162.542 93.8882C160.244 88.7788 168.058 85.2706 170.356 90.3799C172.653 95.4893 164.834 98.9998 162.542 93.8882ZM177.772 91.9265C175.48 86.8148 183.291 83.3139 185.589 88.4233C187.886 93.5326 180.07 97.0358 177.772 91.9265ZM104.545 179.801C106.085 180.399 107.79 180.359 109.289 179.692C110.783 179.017 111.945 177.769 112.521 176.222C113.097 174.675 113.04 172.954 112.363 171.435L107.731 161.111C107.408 160.337 106.935 159.634 106.34 159.045C105.745 158.455 105.041 157.99 104.268 157.678C103.495 157.366 102.67 157.212 101.841 157.227C101.012 157.241 100.196 157.423 99.4414 157.761C98.6866 158.1 98.0085 158.589 97.4468 159.198C96.8851 159.808 96.4514 160.526 96.1713 161.311C95.8911 162.095 95.7702 162.93 95.8157 163.767C95.8612 164.603 96.0722 165.423 96.4362 166.179L101.068 176.503C101.755 178.018 103.005 179.204 104.545 179.801ZM136.105 171.757C139.741 172.395 143.47 171.933 146.823 170.429C151.317 168.413 154.815 164.669 156.547 160.02C158.278 155.372 158.102 150.2 156.056 145.642C154.53 142.243 152.044 139.365 148.913 137.374C145.782 135.383 142.146 134.367 138.465 134.455C134.783 134.543 131.222 135.731 128.232 137.869C125.242 140.007 122.956 142.998 121.665 146.465C120.374 149.932 120.134 153.718 120.977 157.346C121.82 160.973 123.707 164.278 126.4 166.843C129.092 169.409 132.47 171.118 136.105 171.757Z" fill="white"/>
</svg>
