<svg width="410" height="305" viewBox="0 0 410 305" fill="none" xmlns="http://www.w3.org/2000/svg">
<path d="M0.85306 4.7632C-4.70466 13.8911 35.2738 58.6041 39.5005 60.4328C45.3856 62.953 44.226 58.549 45.5663 56.3533L236.085 175.509C233.336 181.375 228.641 187.214 220.699 188.069C204.089 189.87 201.77 176.54 201.77 176.54C201.77 176.54 189.651 169.472 192.291 192.106C192.537 194.239 193.034 196.336 193.77 198.353C190.004 197.837 170.68 194.666 163.109 183.248C154.807 170.714 172.054 209.103 199.377 207.514C209.239 218.348 226.983 222.373 238.891 222.351C239.881 222.345 240.871 222.391 241.856 222.491C238.714 225.998 235.784 233.563 234.028 248.332C234.028 248.332 234.116 260.124 247.633 267.52C247.633 267.52 239.249 252.503 243.954 245.766C247.86 240.167 254.242 233.794 255.481 228.369C261.19 233.467 264.365 241.201 265.183 249.209C265.758 254.808 272.819 267.471 284.441 274.958C280.822 279.097 282.941 287.65 320.016 303.79C320.016 303.79 336.124 308.504 351.755 293.103C351.755 293.103 320.084 299.445 312.84 290.264C310.212 286.939 307.738 283.637 305.244 280.748C320.455 279.929 339.03 268.492 359.206 235.361C380.232 200.841 381.129 178.687 373.94 164.894C378.151 166.327 382.988 167.376 387.945 168.633C399.299 171.494 406.453 202.99 406.453 202.99C414.112 182.438 403.217 169.66 403.217 169.66C368.182 137.754 362.301 145.395 361.653 151.753C349.392 143.954 333.817 143.356 328.342 145.51C320.427 148.626 311.557 149.274 304.156 145.961C307.825 141.747 309.024 132.663 311.126 126.079C313.626 118.248 330.666 115.818 330.666 115.818C316.579 109.572 307.152 116.664 307.152 116.664C299.027 124.555 294.629 130.452 292.608 134.859C292.549 134.74 292.492 134.625 292.433 134.505C287.067 124.068 275.576 110.411 261.709 106.386C250.888 80.9105 208.245 83.2477 223.281 84.8817C237.271 86.398 249.218 102.919 250.941 105.405C248.624 105.649 246.347 106.191 244.168 107.019C222.856 115.047 234.693 122.577 234.693 122.577C234.693 122.577 247.602 118.514 253.62 134.101C256.849 142.448 252.658 150.026 248.073 155.294L54.9918 40.8818C48.2127 36.8643 55.6246 33.6366 52.5632 26.5489C49.5018 19.4613 30.5221 20.7045 19.8712 10.5893C19.0803 9.84259 8.19628 -7.29562 0.85306 4.7632ZM343.991 155.428C348.404 148.187 359.637 155.021 355.226 162.267C350.815 169.512 339.58 162.673 343.991 155.428V155.428ZM359.92 167.84C362.815 163.089 370.187 167.578 367.292 172.33C364.398 177.081 357.028 172.597 359.92 167.84V167.84ZM322.999 197.777C323.689 198.195 324.29 198.745 324.766 199.396C325.243 200.047 325.586 200.786 325.777 201.57C325.967 202.353 326.001 203.167 325.876 203.964C325.751 204.761 325.47 205.526 325.049 206.214L319.292 215.67C318.445 217.062 317.08 218.06 315.497 218.445C313.914 218.831 312.243 218.572 310.851 217.725C309.46 216.879 308.462 215.514 308.077 213.931C307.691 212.349 307.951 210.678 308.798 209.286L314.562 199.833C315.412 198.446 316.777 197.452 318.357 197.067C319.938 196.682 321.606 196.937 322.999 197.777V197.777ZM364.715 182.901C366.251 180.372 370.168 182.758 368.644 185.311C367.12 187.865 363.186 185.42 364.715 182.901V182.901ZM300.011 168.358C304.211 170.914 307.558 174.659 309.63 179.118C311.701 183.578 312.403 188.551 311.647 193.41C310.891 198.269 308.711 202.795 305.382 206.415C302.054 210.036 297.727 212.588 292.948 213.75C288.169 214.912 283.153 214.631 278.534 212.943C273.916 211.254 269.902 208.234 267.001 204.265C264.099 200.295 262.441 195.554 262.235 190.641C262.028 185.729 263.284 180.865 265.842 176.665C269.273 171.034 274.8 166.995 281.207 165.437C287.615 163.879 294.379 164.93 300.011 168.358V168.358Z" fill="#CB1200"/>
</svg>
