<svg width="440" height="285" viewBox="0 0 440 285" fill="none" xmlns="http://www.w3.org/2000/svg">
<path d="M438.082 3.64487C432.619 -5.93324 372.279 7.81409 368.516 10.7158C363.3 14.7691 367.855 15.9229 369.168 18.23L166.405 130.675C162.483 125.263 159.559 118.108 162.755 110.511C169.429 94.6162 182.622 99.1834 182.622 99.1834C182.622 99.1834 195.057 91.7759 173.306 82.8492C171.257 82.0054 169.117 81.4056 166.928 81.0623C169.275 77.9209 181.794 62.0612 195.883 60.9316C211.347 59.7002 168.075 56.0875 155.856 81.5459C141.148 85.0352 128.648 99.0422 122.718 109.803C122.229 110.7 121.692 111.57 121.11 112.409C119.514 107.82 114.149 101.396 101.694 92.431C101.694 92.431 91.0058 86.618 77.5745 95.1239C77.5745 95.1239 95.3198 95.0595 99.0513 102.673C102.153 108.997 104.717 117.943 108.996 121.772C101.541 124.378 92.973 123.38 85.3353 120.117C79.9932 117.838 65.0342 117.885 52.4685 124.635C50.5398 119.3 41.7602 116.939 8.66508 142.343C8.66508 142.343 -3.63975 154.528 2.45328 176.334C2.45328 176.334 12.5533 144.576 24.4604 142.623C28.7756 141.912 32.9928 141.329 36.8465 140.521C29.9853 154.662 31.0281 177.145 50.8548 211.913C71.5102 248.143 91.0615 260.022 107.104 260.424C103.707 263.51 100.343 267.352 96.7308 271.199C88.4755 280.019 56.4685 270.739 56.4685 270.739C71.1938 287.922 88.1727 284.471 88.1727 284.471C134.482 268.788 130.522 259.661 125.107 255.899C138.273 248.728 146.596 234.966 147.387 228.948C148.529 220.246 152.376 211.915 159.065 206.889C161.036 212.307 168.637 217.928 173.531 223.116C179.35 229.286 173.029 245.882 173.029 245.882C185.706 236.287 184.015 224.233 184.015 224.233C180.952 212.956 177.826 206.038 174.857 202.012C174.995 202.019 175.127 202.025 175.265 202.031C187.367 202.402 205.438 198.853 216 188.347C244.404 191.308 263.603 151.645 254.614 164.402C246.255 176.273 225.372 178.803 222.267 179.116C223.204 176.902 223.852 174.576 224.194 172.196C227.596 148.945 214.884 155.868 214.884 155.868C214.884 155.868 212.101 169.552 195.023 167.195C185.875 165.939 181.128 158.37 178.663 151.599L378.425 34.4694C385.439 30.3572 384.649 38.6609 392.577 39.4388C400.505 40.2168 408.866 22.4622 423.319 17.9018C424.388 17.5609 445.298 16.2993 438.082 3.64487ZM130.615 238.119C134.945 245.721 123.164 252.446 118.827 244.843C114.491 237.241 126.279 230.517 130.615 238.119V238.119ZM111.45 246.296C114.293 251.283 106.557 255.695 103.714 250.708C100.871 245.721 108.601 241.309 111.45 246.296V246.296ZM102.875 198.008C102.152 198.422 101.355 198.689 100.53 198.794C99.704 198.899 98.8657 198.84 98.0629 198.62C97.26 198.4 96.5085 198.024 95.8514 197.513C95.1942 197.002 94.6444 196.366 94.2335 195.642L88.5739 185.721C87.7409 184.261 87.5219 182.53 87.965 180.908C88.4081 179.287 89.4771 177.908 90.9367 177.074C92.3963 176.241 94.127 176.022 95.7481 176.465C97.3692 176.908 98.7479 177.978 99.5809 179.438L105.234 189.364C106.061 190.825 106.277 192.553 105.835 194.173C105.393 195.792 104.329 197.171 102.875 198.008V198.008ZM95.4588 243.099C96.9735 245.75 92.863 248.094 91.3196 245.442C89.7761 242.79 93.9492 240.46 95.4588 243.099V243.099ZM140.919 191.956C136.512 194.47 131.459 195.621 126.398 195.263C121.338 194.904 116.497 193.053 112.489 189.942C108.481 186.832 105.484 182.602 103.879 177.789C102.274 172.975 102.132 167.793 103.471 162.899C104.81 158.004 107.57 153.616 111.402 150.291C115.234 146.965 119.966 144.851 124.999 144.215C130.032 143.58 135.141 144.452 139.679 146.72C144.216 148.989 147.98 152.553 150.493 156.961C153.862 162.871 154.746 169.879 152.951 176.442C151.155 183.004 146.827 188.585 140.919 191.956V191.956Z" fill="#CB1200"/>
</svg>
