<svg width="400" height="293" viewBox="0 0 400 293" fill="none" xmlns="http://www.w3.org/2000/svg">
<path d="M343.972 125.032C343.972 125.032 335.409 124.044 327.333 136.296C324.979 139.865 323.894 142.468 323.533 144.377C316.913 142.652 309.705 140.751 301.909 138.673L319.734 121.076C319.734 121.076 311.465 118.726 301.504 129.518C298.44 132.84 296.948 135.33 296.348 137.191C290.688 135.695 285.367 134.369 280.385 133.213L285.463 107.042C285.463 107.042 277.313 109.781 275.19 124.292C274.747 126.822 274.661 129.403 274.935 131.957C241.724 124.652 224.111 124.848 214.796 127.056L67.2874 39.4259L69.8097 35.2852L19.279 0.580063L0.831333 30.8077L54.821 59.9221L57.3434 55.7871L202.657 146.966C204.866 155.902 212.221 170.801 232.022 195.207C230.326 196.206 228.162 198.278 225.523 202.203C217.186 214.597 221.313 222.216 221.313 222.216L235.311 199.213C237.7 202.093 240.258 205.097 242.986 208.224C245.358 210.945 247.868 213.759 250.516 216.667C248.471 217.906 246.58 219.382 244.88 221.063C234.068 231.354 236.427 239.678 236.427 239.678L254.396 220.961C259.607 226.712 264.363 232.031 268.747 236.945C266.91 237.581 264.428 239.772 261.428 245.538C254.528 258.789 259.485 265.889 259.485 265.889L271.487 240.018C316.159 290.239 318.413 295.953 326.351 290.372C335.374 284.058 397.332 182.511 398.85 171.59C400.183 161.971 394.065 162.583 328.853 145.755L343.972 125.032ZM332.701 256.624C332.978 256.794 333.22 257.017 333.412 257.28C333.604 257.543 333.742 257.841 333.818 258.158C333.895 258.474 333.908 258.803 333.858 259.125C333.808 259.446 333.694 259.755 333.525 260.033L323.279 276.82C323.117 277.113 322.897 277.37 322.633 277.575C322.369 277.781 322.067 277.931 321.743 278.016C321.42 278.101 321.083 278.12 320.752 278.072C320.421 278.023 320.103 277.908 319.818 277.734C319.532 277.559 319.285 277.329 319.091 277.056C318.897 276.784 318.761 276.475 318.689 276.148C318.618 275.821 318.613 275.483 318.676 275.155C318.738 274.826 318.867 274.514 319.053 274.236L329.299 257.448C329.468 257.171 329.69 256.929 329.952 256.737C330.215 256.545 330.513 256.407 330.829 256.331C331.145 256.254 331.473 256.241 331.794 256.291C332.115 256.342 332.423 256.455 332.701 256.624V256.624ZM326.515 250.904C327.074 251.249 327.474 251.8 327.628 252.439C327.782 253.077 327.678 253.751 327.339 254.313L317.093 271.1C316.751 271.661 316.199 272.063 315.56 272.218C314.921 272.373 314.247 272.267 313.685 271.924C313.124 271.581 312.722 271.03 312.568 270.391C312.413 269.751 312.519 269.077 312.861 268.516L323.107 251.74C323.45 251.179 324.001 250.776 324.639 250.62C325.277 250.463 325.952 250.565 326.515 250.904V250.904ZM320.323 245.189C320.882 245.534 321.282 246.086 321.437 246.724C321.591 247.363 321.487 248.036 321.147 248.598L310.885 265.386C310.542 265.947 309.99 266.349 309.351 266.504C308.712 266.658 308.038 266.553 307.477 266.21C306.916 265.867 306.514 265.316 306.359 264.676C306.205 264.037 306.31 263.363 306.653 262.801L316.899 246.014C317.069 245.734 317.292 245.491 317.557 245.298C317.821 245.105 318.121 244.966 318.44 244.89C318.758 244.813 319.088 244.8 319.411 244.852C319.735 244.903 320.045 245.018 320.323 245.189V245.189ZM248.193 198.937C228.74 180.574 220.289 165.497 216.648 155.226L262.845 183.431C261.937 204.395 279.581 228.598 248.193 198.937V198.937ZM315.554 200.365C313.131 204.338 309.584 207.503 305.362 209.46C301.14 211.416 296.433 212.077 291.836 211.357C287.239 210.638 282.959 208.571 279.536 205.418C276.114 202.264 273.703 198.167 272.609 193.643C271.514 189.119 271.786 184.373 273.389 180.003C274.992 175.634 277.854 171.838 281.614 169.096C285.374 166.355 289.862 164.79 294.511 164.599C299.161 164.409 303.762 165.603 307.733 168.028C313.054 171.281 316.868 176.514 318.334 182.577C319.801 188.641 318.801 195.038 315.554 200.365V200.365ZM377.316 194.787C373.813 200.538 364.924 195.096 368.427 189.362C371.929 183.628 380.812 189.053 377.316 194.787V194.787ZM274.993 163.812L228.945 135.695C239.754 134.315 256.919 135.037 281.814 143.836C322.358 158.162 293.238 153.62 274.993 163.812V163.812ZM385.153 180.987C381.657 186.738 372.768 181.29 376.27 175.556C379.773 169.823 388.656 175.253 385.153 180.987V180.987Z" fill="white"/>
</svg>
