<svg width="935" height="1388" viewBox="0 0 935 1388" fill="none" xmlns="http://www.w3.org/2000/svg">
<circle cx="400.899" cy="1005.5" r="364" transform="rotate(1.22918 400.899 1005.5)" fill="black" stroke="white" stroke-width="20"/>
<path fill-rule="evenodd" clip-rule="evenodd" d="M150.933 611.752C162.637 486.961 311.517 531.241 384.494 568.98C456.917 437.308 534.126 559.926 522.305 631.805C512.849 689.308 603.798 1001.38 651.007 1173.75C611.886 1163.35 594.257 1196.02 597.116 1172.05C573.269 1221.45 592.191 1216.65 601.08 1230.28C568.834 1227.13 514.165 1207.33 509.956 1198.79C492.399 1242.55 459.902 1253.18 445.848 1253.03L450.38 1171.47C407.271 1268.56 333.687 1281.98 302.284 1276.55C347.463 1259.87 324.009 1190.88 306.634 1158.47C296.364 1209.78 235.76 1222.23 206.743 1222.04C237.111 1202.5 232.71 1167.43 226.714 1152.33C194.001 1201.24 157.812 1192.39 138.038 1177.92C147.646 1179.78 165.976 1170.81 196.53 1130.4C226.711 1090.48 205.346 984.443 182.524 871.177C163.928 778.884 144.365 681.788 150.933 611.752ZM284.017 926.88L240.841 735.937L243.173 700.931L436.116 676.46L454.078 918.375L284.017 926.88Z" fill="#CB1200"/>
<path d="M365.27 1056.85C348.959 1084.87 387.484 1149.83 424.322 1171.69C482.944 1206.47 590.938 1176.93 528.72 1103.99C478.945 1045.65 410.621 1046.82 365.27 1056.85Z" fill="#9C9C9C"/>
<path fill-rule="evenodd" clip-rule="evenodd" d="M511.104 620.993C508.4 722.961 523.383 721.391 523.383 721.391C642.08 986.378 597.219 1015.4 594.969 1016.85C594.918 1016.88 594.889 1016.9 594.884 1016.91C636.667 1102.72 557.882 1313.1 497.104 1219.21C436.326 1125.32 376.553 1111.81 376.553 1111.81C293.209 1088.66 223.357 847.385 223.357 847.385C223.357 847.385 181.448 755.937 261.488 668.58C312.706 612.707 370.158 615.198 402.096 616.582C415.351 617.157 424.211 617.541 426.407 613.483L426.148 607.279C424.821 603.974 424.273 600.408 424.546 596.859C406.208 523.851 239.488 137.016 239.488 137.016L258.912 127.903C258.912 127.903 386.249 425.698 444.475 579.61C448.87 578.59 453.357 578.018 457.869 577.904C459.933 575.819 462.113 573.852 464.397 572.012L463.58 568.613C447.501 501.753 349.351 93.6185 357.988 72.5124C367.37 49.4971 378.308 66.5703 378.308 66.5703C378.308 66.5703 400.117 275.341 485.625 561.165C499.231 559.257 512.47 570.117 511.104 620.993ZM373.757 892.161C268.417 923.737 261.36 772.715 261.36 772.715C268.455 690.421 340.778 709.906 371.3 720.294C401.822 730.682 479.098 860.585 373.757 892.161Z" fill="white"/>
<path d="M373.922 892.535C268.581 924.111 261.524 773.089 261.524 773.089C268.62 690.795 340.943 710.28 371.465 720.668C401.986 731.056 479.263 860.959 373.922 892.535Z" fill="black"/>
<ellipse cx="372.186" cy="802.387" rx="15.5956" ry="16.513" transform="rotate(-7.49846 372.186 802.387)" fill="#CB1200"/>
<path d="M395.592 586.491C389.744 608.851 388.486 655.528 430.23 663.358C425.614 656.409 416.609 633.691 417.517 598.41C418.062 577.236 394.669 579.709 368.764 589.308L395.592 586.491Z" fill="#CB1200"/>
<path d="M230.127 872.443C246.092 877.744 225.025 793.848 232.026 788.454C235.616 802.634 241.831 811.028 239.89 816.565C300.157 734.525 316.109 647.521 319.981 613.098C333.132 605.263 351.506 595.704 368.764 589.308L256.408 601.11L191.245 650.862L193.24 834.735C207.779 871.375 214.161 867.142 230.127 872.443Z" fill="#CB1200"/>
<path d="M487.221 1025.24C496.725 1033.94 493.908 1036.95 501.115 1036.45C508.322 1035.94 513.786 1030.11 513.319 1023.42C512.853 1016.73 506.632 1011.71 499.425 1012.21C494.318 1017.52 477.716 1016.54 487.221 1025.24Z" fill="#9C9C9C"/>
<path d="M602.182 1005.6C601.248 1005.92 598.538 1006.44 595.174 1006.07C590.969 1005.6 589.099 1018.22 595.172 1016.82C597.042 1015.41 601.062 1011.21 602.182 1005.6Z" fill="#9C9C9C"/>
</svg>
