<svg width="547" height="338" viewBox="0 0 547 338" fill="none" xmlns="http://www.w3.org/2000/svg">
<path d="M473.711 132.464C473.711 132.464 465.121 131.93 457.716 144.594C455.558 148.282 454.614 150.939 454.356 152.865C447.663 151.492 440.376 149.976 432.493 148.314L449.335 129.797C449.335 129.797 440.966 127.889 431.606 139.193C428.726 142.673 427.371 145.238 426.871 147.129C421.149 145.935 415.773 144.892 410.744 144.002L414.424 117.599C414.424 117.599 406.442 120.766 405.093 135.368C404.785 137.919 404.836 140.5 405.245 143.037C371.746 137.501 354.195 138.63 345.024 141.329L193.318 61.6359L195.614 57.3674L143.397 25.388L126.603 56.5505L181.973 82.7638L184.269 78.5009L333.975 161.854C336.649 170.66 344.77 185.148 365.804 208.471C364.166 209.558 362.118 211.742 359.694 215.802C352.038 228.619 356.556 236.01 356.556 236.01L369.295 212.297C371.83 215.047 374.539 217.911 377.424 220.889C379.933 223.48 382.584 226.158 385.378 228.921C383.405 230.267 381.597 231.841 379.991 233.61C369.756 244.459 372.548 252.646 372.548 252.646L389.474 233.003C394.974 238.47 399.997 243.53 404.629 248.205C402.83 248.937 400.472 251.256 397.785 257.174C391.607 270.771 396.925 277.599 396.925 277.599L407.523 251.129C454.719 298.912 457.268 304.499 464.888 298.505C473.549 291.722 529.952 187.035 530.889 176.049C531.709 166.372 525.641 167.308 459.733 153.958L473.711 132.464ZM469.433 264.468C469.719 264.623 469.972 264.833 470.177 265.085C470.382 265.338 470.536 265.628 470.629 265.941C470.722 266.253 470.752 266.58 470.719 266.904C470.686 267.228 470.589 267.542 470.435 267.828L461.108 285.135C460.961 285.436 460.756 285.704 460.504 285.923C460.251 286.142 459.958 286.308 459.64 286.41C459.322 286.513 458.986 286.55 458.654 286.519C458.321 286.488 457.999 286.39 457.705 286.231C457.411 286.072 457.153 285.854 456.945 285.593C456.737 285.331 456.584 285.029 456.496 284.707C456.407 284.384 456.385 284.047 456.43 283.716C456.475 283.384 456.586 283.065 456.757 282.778L466.085 265.471C466.239 265.185 466.447 264.932 466.699 264.727C466.951 264.521 467.24 264.368 467.551 264.274C467.862 264.181 468.189 264.15 468.511 264.184C468.834 264.217 469.147 264.314 469.433 264.468V264.468ZM462.963 259.084C463.538 259.398 463.966 259.928 464.154 260.557C464.342 261.187 464.274 261.865 463.965 262.444L454.638 279.751C454.326 280.329 453.797 280.76 453.168 280.948C452.539 281.136 451.861 281.067 451.284 280.754C450.706 280.442 450.276 279.912 450.088 279.282C449.9 278.652 449.97 277.973 450.282 277.394L459.61 260.099C459.922 259.52 460.45 259.089 461.078 258.899C461.706 258.709 462.383 258.775 462.963 259.084V259.084ZM456.488 253.705C457.063 254.02 457.491 254.55 457.679 255.179C457.866 255.808 457.798 256.486 457.489 257.065L448.145 274.373C447.833 274.952 447.305 275.383 446.676 275.571C446.047 275.759 445.369 275.689 444.791 275.377C444.214 275.064 443.783 274.535 443.596 273.904C443.408 273.274 443.477 272.595 443.789 272.017L453.117 254.71C453.271 254.422 453.482 254.167 453.735 253.96C453.989 253.753 454.28 253.599 454.594 253.506C454.907 253.412 455.235 253.382 455.56 253.416C455.885 253.45 456.201 253.549 456.488 253.705V253.705ZM382.124 211.339C361.758 194.033 352.534 179.425 348.361 169.36L395.913 195.079C396.117 216.061 414.989 239.295 382.124 211.339V211.339ZM449.362 209.196C447.156 213.292 443.787 216.641 439.681 218.818C435.575 220.996 430.917 221.905 426.295 221.43C421.674 220.955 417.297 219.117 413.718 216.15C410.138 213.183 407.518 209.219 406.188 204.759C404.857 200.3 404.877 195.545 406.244 191.097C407.611 186.649 410.265 182.707 413.868 179.77C417.472 176.833 421.864 175.032 426.489 174.596C431.115 174.16 435.765 175.107 439.853 177.319C445.331 180.286 449.41 185.309 451.192 191.286C452.975 197.264 452.317 203.705 449.362 209.196V209.196ZM510.645 200.354C507.457 206.283 498.307 201.319 501.496 195.408C504.684 189.496 513.828 194.443 510.645 200.354V200.354ZM406.987 174.844L359.589 149.206C370.292 147.254 387.445 147.067 412.731 154.534C453.913 166.692 424.639 163.699 406.987 174.844V174.844ZM517.73 186.159C514.548 192.087 505.397 187.117 508.585 181.206C511.774 175.295 520.918 180.247 517.73 186.159V186.159Z" fill="white"/>
</svg>
