<svg width="547" height="338" viewBox="0 0 547 338" fill="none" xmlns="http://www.w3.org/2000/svg">
<path d="M450.163 40.6439C444.709 31.0658 384.464 44.8131 380.707 47.7148C375.499 51.7682 380.047 52.9219 381.357 55.229L178.912 167.674C174.996 162.262 172.076 155.107 175.267 147.51C181.93 131.615 195.103 136.182 195.103 136.182C195.103 136.182 207.519 128.775 185.802 119.848C183.756 119.004 181.619 118.405 179.433 118.061C181.777 114.92 194.276 99.0602 208.343 97.9307C223.783 96.6992 180.578 93.0865 168.378 118.545C153.694 122.034 141.213 136.041 135.292 146.802C134.804 147.699 134.268 148.569 133.687 149.408C132.093 144.819 126.737 138.395 114.301 129.43C114.301 129.43 103.63 123.617 90.2196 132.123C90.2196 132.123 107.937 132.059 111.663 139.672C114.76 145.996 117.32 154.942 121.592 158.771C114.149 161.377 105.594 160.379 97.9683 157.116C92.6346 154.837 77.6989 154.884 65.1528 161.634C63.2271 156.299 54.4613 153.938 21.4179 179.342C21.4179 179.342 9.13226 191.527 15.2158 213.333C15.2158 213.333 25.3 181.575 37.1885 179.622C41.497 178.911 45.7076 178.328 49.5553 177.52C42.7048 191.662 43.746 214.144 63.5417 248.912C84.1648 285.142 103.686 297.021 119.703 297.423C116.311 300.509 112.952 304.351 109.346 308.198C101.104 317.018 69.1466 307.738 69.1466 307.738C83.8489 324.921 100.801 321.47 100.801 321.47C147.038 305.787 143.085 296.66 137.677 292.898C150.824 285.727 159.133 271.965 159.923 265.947C161.063 257.246 164.904 248.914 171.583 243.888C173.551 249.306 181.14 254.927 186.026 260.115C191.837 266.285 185.525 282.881 185.525 282.881C198.183 273.286 196.494 261.232 196.494 261.232C193.435 249.955 190.314 243.037 187.35 239.011C187.488 239.018 187.62 239.024 187.757 239.03C199.84 239.401 217.883 235.852 228.429 225.346C256.789 228.307 275.957 188.644 266.983 201.401C258.637 213.272 237.786 215.802 234.686 216.115C235.622 213.901 236.268 211.575 236.61 209.195C240.006 185.944 227.314 192.867 227.314 192.867C227.314 192.867 224.536 206.551 207.485 204.194C198.351 202.938 193.612 195.369 191.15 188.598L390.6 71.4684C397.603 67.3562 396.814 75.6599 404.73 76.4379C412.645 77.2158 420.993 59.4613 435.424 54.9008C436.492 54.5599 457.369 53.2983 450.163 40.6439ZM143.177 275.118C147.501 282.72 135.738 289.445 131.408 281.842C127.078 274.24 138.848 267.516 143.177 275.118V275.118ZM124.042 283.295C126.881 288.282 119.157 292.694 116.318 287.707C113.48 282.72 121.198 278.308 124.042 283.295V283.295ZM115.48 235.007C114.759 235.421 113.963 235.688 113.139 235.793C112.315 235.898 111.478 235.839 110.676 235.619C109.874 235.4 109.124 235.023 108.468 234.512C107.812 234.001 107.263 233.365 106.853 232.641L101.202 222.72C100.37 221.26 100.151 219.529 100.594 217.907C101.036 216.286 102.104 214.907 103.561 214.073C105.018 213.24 106.746 213.021 108.365 213.464C109.983 213.907 111.36 214.977 112.192 216.437L117.836 226.363C118.662 227.824 118.877 229.552 118.436 231.172C117.995 232.791 116.932 234.17 115.48 235.007V235.007ZM108.076 280.098C109.588 282.749 105.484 285.093 103.943 282.441C102.402 279.789 106.569 277.459 108.076 280.098V280.098ZM153.465 228.955C149.065 231.469 144.02 232.62 138.967 232.262C133.915 231.903 129.082 230.052 125.08 226.941C121.077 223.831 118.086 219.601 116.483 214.788C114.881 209.974 114.739 204.792 116.076 199.898C117.413 195.003 120.168 190.615 123.994 187.29C127.82 183.964 132.545 181.85 137.57 181.215C142.595 180.579 147.696 181.451 152.227 183.719C156.757 185.988 160.515 189.552 163.024 193.96C166.388 199.87 167.271 206.878 165.478 213.441C163.685 220.003 159.364 225.584 153.465 228.955V228.955Z" fill="#CB1200"/>
</svg>
