<svg width="764" height="1418" viewBox="0 0 764 1418" fill="none" xmlns="http://www.w3.org/2000/svg">
<circle cx="381.899" cy="1036.5" r="364" transform="rotate(1.22918 381.899 1036.5)" fill="black" stroke="white" stroke-width="20"/>
<path fill-rule="evenodd" clip-rule="evenodd" d="M130.736 601.506C152.52 469.143 308.178 527.502 383.284 573.226C470.408 438.035 543.714 574.696 525.744 650.559C511.367 711.249 585.242 1051.2 622.815 1238.75C581.821 1224.74 560.567 1258.31 565.404 1232.93C536.266 1283.9 556.826 1280.18 565.301 1295.4C531.109 1289.62 474.214 1264.42 470.356 1254.99C448.354 1300.41 412.866 1309.34 397.872 1308.13L408.782 1221.38C355.53 1321.84 275.968 1330.69 242.844 1322.55C292.322 1308.11 272.416 1232.7 256.278 1196.8C241.493 1250.83 175.862 1259.61 144.895 1257.25C178.773 1238.64 176.685 1200.87 171.407 1184.3C132.84 1234.09 94.8613 1221.95 74.8265 1205.02C84.9456 1207.72 105.185 1199.51 140.814 1158.64C176.007 1118.27 161.09 1003.47 145.155 880.837C132.17 780.914 118.51 675.793 130.736 601.506ZM249.368 947.863L217.483 740.786L222.579 703.586L430.398 691.82L431.569 951.441L249.368 947.863Z" fill="#CB1200"/>
<path fill-rule="evenodd" clip-rule="evenodd" d="M514.59 638.181C504.113 746.847 520.227 746.286 520.227 746.286C627.232 1038.04 577.175 1065.68 574.665 1067.07C574.607 1067.1 574.575 1067.12 574.57 1067.12C612.792 1161.85 513.017 1380.6 455.116 1275.83C397.214 1171.06 334.402 1152.19 334.402 1152.19C247.142 1121.27 190.522 858.473 190.522 858.473C190.522 858.473 152.585 757.718 244.542 670.408C303.385 614.566 364.539 621.502 398.535 625.358C412.644 626.958 422.075 628.028 424.722 623.859L424.907 617.216C423.736 613.588 423.416 609.74 423.972 605.972C409.828 526.658 260.62 101.239 260.62 101.239L282.037 92.9555C282.037 92.9555 395.824 420.379 446.534 589.038C451.302 588.276 456.135 588 460.961 588.214C463.32 586.142 465.793 584.204 468.369 582.409L467.749 578.72C455.559 506.138 381.147 63.0831 391.94 41.1918C403.67 17.3176 414.077 36.3602 414.077 36.3602C414.077 36.3602 421.822 260.881 491.841 572.408C506.509 571.384 519.836 583.965 514.59 638.181ZM347.767 917.474C232.948 943.346 236.654 781.58 236.654 781.58C250.355 694.246 326.122 720.432 357.936 733.795C389.749 747.158 462.585 891.602 347.767 917.474Z" fill="white"/>
<path d="M347.913 917.887C233.094 943.758 236.8 781.992 236.8 781.992C250.501 694.659 326.268 720.844 358.082 734.207C389.895 747.57 462.731 892.015 347.913 917.887Z" fill="black"/>
<ellipse cx="352.77" cy="821.508" rx="16.6912" ry="17.6731" transform="rotate(-3.51044 352.77 821.508)" fill="#CB1200"/>
<path d="M393.829 592.746C385.922 616.184 381.104 665.926 425.089 677.393C420.678 669.63 412.755 644.704 416.351 607.104C418.509 584.538 393.348 585.437 364.977 593.758L393.829 592.746Z" fill="#CB1200"/>
<path d="M195.884 885.731C212.535 892.579 196.287 801.438 204.163 796.2C206.941 811.608 212.951 821.031 210.467 826.799C280.919 743.693 304.425 651.99 311.122 615.527C325.746 608.14 346.074 599.302 364.977 593.758L244.139 597.995L170.865 646.264L159.308 842.726C172.103 882.928 179.233 878.882 195.884 885.731Z" fill="#CB1200"/>
</svg>
