<svg width="2301" height="2301" viewBox="0 0 2301 2301" fill="none" xmlns="http://www.w3.org/2000/svg">
<path d="M1741.97 1154.35C1434.78 1154.35 1178.96 1153.99 1173.57 1153.45C1166.93 1152.73 1164.77 1152.91 1167.28 1154.17C1169.26 1155.07 1297.35 1172.13 1452.02 1192.07C1606.7 1212.19 1858.02 1244.89 2010.72 1264.83C2163.42 1284.77 2288.45 1300.94 2288.81 1300.58C2290.97 1298.96 2297.61 1226.21 2299.23 1186.32L2300.49 1154.35L1741.97 1154.35Z" fill="#CB1200"/>
<path d="M2282.88 962.128C2278.75 936.438 2270.67 896.916 2264.38 870.508C2262.22 861.167 2260.43 857.035 2258.63 857.215C2255.76 857.394 2214.08 868.532 1778.08 985.481C1714.84 1002.37 1624.3 1026.62 1576.88 1039.38C1529.45 1052.13 1445.02 1074.77 1389.15 1089.68C1333.28 1104.59 1260.52 1124.17 1227.47 1132.97C1166.21 1149.32 1158.84 1151.47 1169.98 1149.86C1173.39 1149.32 1313.34 1130.81 1480.77 1108.54C1648.19 1086.26 1897.54 1053.03 2034.61 1034.88C2171.68 1016.56 2284.68 1001.65 2285.58 1001.65C2288.27 1001.65 2287.55 990.871 2282.88 962.128Z" fill="#CB1200"/>
<path d="M2251.98 1449.15C2212.28 1438.55 2049.88 1395.08 1969.4 1373.52C1872.93 1347.65 1807.72 1330.22 1608.31 1276.69C1560.35 1263.93 1469.45 1239.5 1406.21 1222.62C1187.94 1164.05 1165.49 1158.12 1165.13 1158.66C1164.77 1159.02 1174.83 1163.33 1187.4 1168.54C1200.16 1173.57 1435.13 1270.58 1709.81 1383.94L2209.23 1590.17L2213.18 1581.55C2220.54 1565.74 2240.3 1511.13 2248.93 1482.92C2253.6 1467.65 2257.73 1454.36 2258.09 1453.1C2258.63 1451.84 2256.11 1450.23 2251.98 1449.15Z" fill="#CB1200"/>
<path d="M2202.22 686.371C2191.09 660.682 2166.65 611.1 2155.87 591.698L2147.97 577.865L1782.57 788.769C1581.55 905 1360.58 1032.37 1291.78 1072.25C1222.98 1111.95 1166.93 1144.65 1167.11 1144.83C1167.47 1145.19 1187.77 1136.92 1212.38 1126.68C1257.65 1107.82 1385.2 1054.82 1571.13 977.577C1627.18 954.223 1718.8 916.138 1775.03 892.784C1831.08 869.43 1924.13 830.806 1981.98 806.734C2039.82 782.661 2114.38 751.582 2147.97 737.75C2181.38 723.737 2209.41 712.42 2210.31 712.42C2213.18 712.42 2211.92 708.288 2202.22 686.371Z" fill="#CB1200"/>
<path d="M2139.71 1726.7C2137.38 1725.26 2035.7 1666.52 1913.72 1596.28C1580.11 1403.7 1169.62 1166.74 1164.59 1163.69C1160.46 1161.17 1160.28 1161.17 1162.8 1163.69C1170.88 1171.95 2061.56 1851.55 2062.82 1850.29C2075.22 1836.64 2143.66 1734.96 2143.66 1730.11C2143.66 1729.75 2141.87 1728.14 2139.71 1726.7Z" fill="#CB1200"/>
<path d="M2053.3 442.228C2015.93 396.419 1966.89 340.549 1964.02 340.549C1963.48 340.549 1782.75 520.913 1562.51 741.518C1342.08 961.943 1164.05 1140.69 1166.75 1138.89C1188.13 1123.8 2059.05 452.468 2059.05 451.031C2059.05 450.133 2056.53 446.001 2053.3 442.228Z" fill="#CB1200"/>
<path d="M1558.01 1564.83C1337.59 1344.41 1157.76 1164.94 1158.12 1166.02C1160.28 1170.69 1210.4 1290.51 1237.88 1356.44C1254.59 1397.04 1291.6 1485.97 1319.98 1554.05C1348.37 1622.32 1384.3 1708.73 1399.92 1746.28C1415.55 1783.82 1447.53 1860.71 1470.88 1916.94C1494.24 1973.35 1531.25 2062.27 1552.98 2114.55C1574.72 2167.01 1593.04 2210.3 1593.76 2211.02C1595.38 2212.81 1649.81 2187.66 1682.87 2169.88C1724.72 2147.24 1725.08 2147.06 1724.36 2144.73C1723.83 2143.65 1599.87 1928.62 1448.79 1666.87C1297.71 1405.31 1172.13 1187.94 1169.98 1183.99C1167.64 1180.03 1166.56 1177.7 1167.64 1178.6C1168.54 1179.67 1320.52 1376.74 1505.02 1616.93C1689.51 1857.12 1842.39 2055.45 1844.73 2057.78L1848.68 2062.09L1860.18 2053.29C1889.64 2030.65 1956.47 1971.73 1958.08 1967.24C1958.44 1966.34 1778.26 1785.08 1558.01 1564.83Z" fill="#CB1200"/>
<path d="M1831.44 224.501C1806.28 205.997 1776.28 185.697 1750.42 169.529C1732.81 158.571 1727.42 156.056 1725.98 157.673C1724.73 158.93 1597.18 379.714 1442.14 648.284C1287.29 916.855 1160.28 1136.2 1159.92 1135.84C1159.56 1135.66 1166.57 1118.06 1175.19 1096.86C1199.62 1037.58 1237.89 944.52 1275.97 852.541C1295.01 806.552 1316.03 755.712 1322.68 739.365C1329.33 723.017 1350.34 672.177 1369.39 626.188C1388.43 580.199 1409.45 529.359 1416.09 513.011C1422.74 496.664 1438.73 457.86 1451.66 426.782C1515.98 270.849 1545.8 198.632 1564.3 153.72C1575.62 126.594 1586.04 101.444 1587.48 97.8506L1590.17 91.2037L1576.34 85.4551C1543.82 71.9816 1452.74 40.903 1450.95 42.8791C1450.77 43.0587 1440.89 79.7064 1429.03 124.079C1406.21 209.41 1378.37 313.425 1333.46 480.675C1318.55 536.545 1295.91 620.978 1283.16 668.405C1213.99 926.915 1159.74 1128.84 1157.94 1135.12C1155.43 1143.57 1163.51 1134.76 1191.9 1097.4C1218.13 1062.91 1441.42 771.342 1516.7 672.896C1584.06 585.049 1812.93 285.76 1829.64 263.843C1840.24 249.831 1849.04 238.154 1849.04 237.794C1848.86 237.435 1841.14 231.507 1831.44 224.501Z" fill="#CB1200"/>
<path d="M1434.24 2206.17C1418.25 2147.07 1374.96 1985.93 1340.47 1857.3C1264.3 1572.56 1220.28 1408.55 1185.79 1280.1C1173.04 1232.14 1161 1187.4 1159.2 1180.4C1157.41 1173.57 1155.79 1169.26 1155.79 1170.88C1155.61 1173.57 1188.66 1422.2 1278.67 2098.03C1292.86 2204.56 1304.72 2292.04 1305.08 2292.4C1306.33 2293.66 1366.87 2282.7 1399.03 2275.52C1440.89 2266 1447.35 2264.02 1447.89 2260.97C1448.07 2259.53 1441.97 2234.92 1434.24 2206.17Z" fill="#CB1200"/>
<path d="M1295.37 11.0835C1272.2 7.3109 1223.51 3.17906 1184.89 1.74189L1153.81 0.484375L1153.99 567.985L1154.17 1135.48L1165.49 1049.25C1171.78 1001.83 1202.5 767.032 1233.75 527.385C1264.83 287.738 1292.32 76.4744 1294.83 57.6116C1297.35 38.9285 1299.68 20.964 1300.22 17.7303C1301.12 12.341 1300.94 11.9817 1295.37 11.0835Z" fill="#CB1200"/>
<path d="M1150.93 1171.41C1150.58 1173.39 1146.62 1203.39 1142.13 1237.88C1137.82 1272.55 1120.75 1402.97 1104.59 1528.01C1039.55 2026.52 1006.5 2281.8 1005.96 2287.01L1005.6 2292.4L1027.16 2294.56C1055.9 2297.43 1110.69 2300.48 1133.69 2300.48L1152.01 2300.48L1151.83 1734.24C1151.65 1422.74 1151.29 1169.44 1150.93 1171.41Z" fill="#CB1200"/>
<path d="M1147.35 1118.41C1146.09 1109.97 1118.24 901.941 1085.55 655.827C1052.85 409.892 1020.34 164.855 1013.15 111.501L1000.22 14.4922L993.928 15.0311C971.293 17.0072 859.194 38.385 855.961 41.439C855.601 41.6187 867.997 89.0451 883.446 146.711C910.034 245.876 934.286 336.417 988.359 538.159C1001.11 586.124 1023.93 670.917 1038.84 726.787C1077.46 871.042 1107.46 982.782 1128.66 1062.72C1138.9 1100.81 1147.88 1132.61 1148.78 1133.68C1149.5 1134.58 1150.04 1134.94 1150.04 1134.58C1149.86 1134.04 1148.6 1126.86 1147.35 1118.41Z" fill="#CB1200"/>
<path d="M1147.88 1166.92C1147.52 1167.46 1131.89 1204.65 1113.39 1249.56C1067.76 1360.4 1042.97 1420.22 952.605 1639.39C933.562 1685.38 912.544 1736.22 905.897 1752.57C899.25 1768.92 878.231 1819.76 859.189 1865.75C840.147 1911.73 819.128 1962.57 812.481 1978.92C805.834 1995.27 784.816 2046.11 765.773 2092.1C716.371 2211.74 715.473 2213.9 715.473 2215.69C715.473 2219.11 784.816 2243.9 829.727 2256.65C841.763 2259.89 852.542 2262.76 853.44 2262.76C854.339 2262.76 855.776 2259.35 856.854 2255.22C857.752 2250.91 871.405 2200.25 886.854 2142.4C902.484 2084.55 925.478 1998.5 938.233 1951.08C950.988 1903.65 973.623 1819.22 988.534 1763.35C1003.44 1707.48 1024.46 1629.15 1035.24 1589.09C1056.44 1509.87 1097.58 1356.45 1127.58 1244.17C1138.18 1205.19 1147.16 1171.59 1147.7 1169.62C1148.42 1167.64 1148.42 1166.39 1147.88 1166.92Z" fill="#CB1200"/>
<path d="M1138.54 1120.22C1135.31 1112.85 1116.81 1068.84 1097.58 1022.31C1078.36 975.962 1041.35 887.038 1015.49 824.701C989.616 762.543 955.663 680.805 940.034 643.259C924.405 605.713 896.739 539.064 878.416 495.051C860.092 451.038 832.247 384.03 816.438 345.945C800.629 307.86 770.628 235.643 749.61 185.162C728.771 134.862 710.806 92.8247 710.088 91.9265C707.752 89.5911 668.41 107.017 620.265 131.628C597.989 142.946 579.126 152.826 578.228 153.725C577.15 154.802 577.33 156.24 578.408 157.677C579.486 158.934 705.776 377.563 859.194 643.259C1012.61 909.134 1139.62 1129.02 1141.42 1131.89C1146.27 1139.8 1145.37 1135.49 1138.54 1120.22Z" fill="#CB1200"/>
<path d="M1142.49 1165.12C1141.95 1165.12 1091.83 1229.97 1031.11 1309.38C970.572 1388.6 851.827 1543.63 767.573 1653.76C683.319 1763.88 578.227 1901.13 534.214 1958.8C490.2 2016.28 453.912 2064.07 453.732 2064.79C453.373 2066.04 503.674 2101.79 521.459 2112.93C538.705 2123.71 576.071 2145.81 576.43 2145.45C576.61 2145.27 703.44 1925.56 858.294 1657.35C1013.15 1389.14 1140.7 1168.53 1141.59 1167.46C1142.67 1166.2 1143.03 1165.12 1142.49 1165.12Z" fill="#CB1200"/>
<path d="M1133.15 1166.38C1070.28 1214.17 240.133 1853.71 239.774 1854.61C239.055 1857.12 284.506 1910.48 310.554 1937.6C324.207 1951.97 335.884 1963.83 336.423 1964.19C336.962 1964.37 518.045 1783.83 738.829 1562.68C959.613 1341.72 1137.1 1163.51 1133.15 1166.38Z" fill="#CB1200"/>
<path d="M1132.61 1134.58C1129.74 1131.17 974.885 929.787 788.234 687.265C601.762 444.744 448.165 245.158 446.907 243.72C444.931 241.744 442.236 243.181 430.38 252.703C407.565 271.206 376.486 298.692 354.749 319.89L334.449 339.651L736.136 741.159C956.921 961.943 1137.64 1142.31 1137.64 1141.77C1137.64 1141.23 1135.31 1138 1132.61 1134.58Z" fill="#CB1200"/>
<path d="M1129.56 1162.61C1125.61 1164.05 1084.83 1180.94 1038.84 1200.16C927.818 1246.33 770.808 1311.54 672.362 1352.5C555.234 1401.18 449.422 1445.2 297.802 1508.25C223.788 1538.97 147.259 1570.77 128.037 1578.67C108.815 1586.76 92.2872 1593.76 91.5686 1594.48C89.0536 1596.82 118.515 1659.15 143.666 1704.6C152.289 1720.05 156.241 1725.44 158.217 1724.72C159.654 1724.19 297.083 1645.14 463.794 1548.85C630.325 1452.74 848.774 1326.63 949.016 1268.78C1049.26 1210.94 1132.61 1162.61 1134.05 1161.72C1135.49 1160.64 1133.51 1161 1129.56 1162.61Z" fill="#CB1200"/>
<path d="M1125.97 1157.04C1118.42 1157.94 824.522 1196.92 145.283 1287.28C71.269 1297.16 10.3692 1305.43 10.0099 1305.78C9.11169 1306.86 15.5789 1346.56 21.1479 1374.41C28.5134 1409.8 38.9328 1449.86 40.9089 1449.5C41.9868 1449.32 77.9159 1439.8 120.851 1428.3C163.786 1416.81 231.692 1398.66 271.753 1387.88C352.055 1366.33 498.466 1327.16 633.739 1290.87C682.243 1277.94 767.036 1255.12 822.367 1240.39C1152.2 1152.01 1138.36 1155.78 1125.97 1157.04Z" fill="#CB1200"/>
<path d="M689.966 803.864C446.726 617.751 244.804 463.076 241.032 460.382L234.385 455.352L219.115 476.55C198.635 505.293 152.287 577.69 153.724 578.768C153.904 578.948 300.494 663.561 479.242 766.677C906.439 1013.33 1129.2 1141.96 1131 1143.03C1131.71 1143.39 1132.25 1143.39 1132.25 1143.03C1132.25 1142.68 933.206 989.977 689.966 803.864Z" fill="#CB1200"/>
<path d="M1122.01 1149.86C1109.8 1148.42 791.826 1107.11 334.629 1047.46C156.421 1024.29 10.0095 1005.79 9.29091 1006.68C6.59623 1009.74 0.488282 1096.51 0.488283 1132.44L0.488283 1152.56L566.371 1152.56C877.697 1152.56 1132.25 1152.2 1132.25 1151.84C1132.25 1151.48 1127.58 1150.58 1122.01 1149.86Z" fill="#CB1200"/>
<path d="M935.005 1065.42C827.577 1021.23 700.209 968.592 651.704 948.651C536.911 901.225 460.562 869.787 357.984 827.39C311.995 808.348 253.79 784.455 228.639 774.036C187.141 756.79 90.4919 716.908 85.6415 714.932C81.8689 713.315 40.9097 832.959 39.4726 849.487L39.1133 855.056L107.379 873.38C144.924 883.44 222.531 904.279 279.838 919.549C516.252 982.963 591.164 1003.08 673.262 1025C720.688 1037.76 805.122 1060.39 860.991 1075.3C1084.83 1135.3 1129.38 1147.16 1129.74 1146.62C1130.1 1146.26 1042.43 1109.79 935.005 1065.42Z" fill="#CB1200"/>
</svg>
