<svg width="864" height="1254" viewBox="0 0 864 1254" fill="none" xmlns="http://www.w3.org/2000/svg">
<g clip-path="url(#clip0_10_256)">
<rect width="864" height="1254" fill="white"/>
<path d="M429.72 -50.5253C429.72 200.548 429.449 409.629 429.041 414.034C428.497 419.466 428.633 421.228 429.584 419.173C430.264 417.558 443.178 312.87 458.267 186.453C473.492 60.0351 498.233 -145.375 513.322 -270.178C528.411 -394.98 540.645 -497.172 540.374 -497.465C539.15 -499.227 484.095 -504.66 453.917 -505.981L429.72 -507.009V-50.5253Z" fill="#CB1200"/>
<path d="M284.268 -492.62C264.829 -489.243 234.922 -482.636 214.94 -477.497C207.871 -475.735 204.744 -474.267 204.88 -472.798C205.016 -470.449 213.444 -436.385 301.94 -80.0374C314.718 -28.3545 333.069 45.6461 342.721 84.4083C352.372 123.171 369.501 192.179 380.783 237.842C392.066 283.505 406.883 342.97 413.544 369.986C425.915 420.054 427.546 426.074 426.322 416.97C425.915 414.181 411.913 299.803 395.057 162.96C378.201 26.1181 353.052 -177.677 339.322 -289.706C325.457 -401.734 314.174 -494.088 314.174 -494.822C314.174 -497.025 306.018 -496.438 284.268 -492.62Z" fill="#CB1200"/>
<path d="M652.795 -467.365C644.775 -434.917 611.878 -302.185 595.566 -236.407C575.991 -157.561 562.805 -104.263 522.295 58.7141C512.644 97.9168 494.156 172.211 481.378 223.894C437.062 402.288 432.577 420.642 432.984 420.935C433.256 421.229 436.519 413.007 440.461 402.729C444.267 392.304 517.673 200.255 603.45 -24.2429L759.506 -432.421L752.981 -435.651C741.019 -441.671 699.694 -457.822 678.352 -464.869C666.797 -468.687 656.737 -472.064 655.786 -472.357C654.834 -472.798 653.611 -470.742 652.795 -467.365Z" fill="#CB1200"/>
<path d="M75.6026 -426.695C56.1635 -417.591 18.6448 -397.623 3.96353 -388.813L-6.50366 -382.353L153.087 -83.7078C241.039 80.5911 337.418 261.188 367.596 317.422C397.639 373.657 422.379 419.467 422.515 419.32C422.787 419.026 416.534 402.435 408.785 382.32C394.512 345.319 354.41 241.073 295.957 89.107C278.285 43.2972 249.467 -31.5844 231.795 -77.5411C214.123 -123.351 184.896 -199.407 166.681 -246.685C148.465 -293.963 124.948 -354.896 114.481 -382.353C103.878 -409.663 95.3135 -432.568 95.3135 -433.302C95.3135 -435.651 92.187 -434.623 75.6026 -426.695Z" fill="#CB1200"/>
<path d="M862.819 -375.6C861.731 -373.691 817.28 -290.587 764.128 -190.892C618.403 81.7648 439.102 417.263 436.791 421.375C434.888 424.752 434.888 424.898 436.791 422.843C443.044 416.236 957.295 -311.73 956.344 -312.758C946.012 -322.889 869.072 -378.83 865.402 -378.83C865.13 -378.83 863.906 -377.362 862.819 -375.6Z" fill="#CB1200"/>
<path d="M-109.138 -304.976C-143.802 -274.436 -186.078 -234.352 -186.078 -232.003C-186.078 -231.562 -49.5969 -83.8547 117.334 96.1546C284.13 276.311 419.387 421.816 418.028 419.614C406.609 402.141 -101.389 -309.674 -102.477 -309.674C-103.156 -309.674 -106.283 -307.618 -109.138 -304.976Z" fill="#CB1200"/>
<path d="M740.336 99.8258C573.54 279.982 437.739 426.955 438.554 426.662C442.089 424.9 532.759 383.935 582.648 361.471C613.37 347.816 680.659 317.57 732.179 294.371C783.836 271.172 849.222 241.807 877.633 229.033C906.043 216.259 964.225 190.124 1006.77 171.037C1049.46 151.949 1116.75 121.703 1156.3 103.937C1196 86.1709 1228.76 71.1946 1229.3 70.6073C1230.66 69.2859 1211.63 24.7974 1198.17 -2.21867C1181.05 -36.4293 1180.91 -36.7229 1179.14 -36.1356C1178.33 -35.6951 1015.61 65.6152 817.548 189.096C619.623 312.577 455.139 415.209 452.148 416.971C449.158 418.88 447.39 419.761 448.07 418.88C448.886 418.146 598.009 293.93 779.758 143.14C961.506 -7.65127 1111.58 -132.601 1113.35 -134.509L1116.61 -137.74L1109.95 -147.136C1092.82 -171.216 1048.23 -225.836 1044.84 -227.157C1044.16 -227.451 906.995 -80.1836 740.336 99.8258Z" fill="#CB1200"/>
<path d="M-273.894 -123.645C-287.895 -103.089 -303.256 -78.5694 -315.49 -57.4264C-323.783 -43.0374 -325.686 -38.6326 -324.462 -37.458C-323.511 -36.4302 -156.444 67.8167 46.7829 194.528C250.009 321.092 415.989 424.899 415.717 425.192C415.581 425.486 402.259 419.76 386.219 412.712C341.359 392.744 270.944 361.47 201.344 330.343C166.544 314.779 128.074 297.6 115.703 292.168C103.333 286.735 64.8626 269.556 30.0626 253.993C-4.73738 238.429 -43.2077 221.25 -55.578 215.818C-67.9483 210.385 -97.3108 197.318 -120.828 186.746C-238.822 134.182 -293.469 109.809 -327.453 94.6859C-347.98 85.4359 -367.011 76.9199 -369.73 75.7453L-374.759 73.5429L-379.109 84.8485C-389.305 111.424 -412.822 185.865 -411.326 187.333C-411.19 187.48 -383.459 195.556 -349.883 205.246C-285.312 223.893 -206.605 246.651 -80.0467 283.358C-37.7702 295.545 26.1204 314.045 62.0079 324.469C257.622 380.998 410.416 425.339 415.174 426.808C421.563 428.863 414.902 422.256 386.627 399.057C360.527 377.621 139.9 195.115 65.4064 133.595C-1.06706 78.535 -227.539 -108.522 -244.123 -122.177C-254.726 -130.84 -263.562 -138.034 -263.834 -138.034C-264.106 -137.887 -268.592 -131.574 -273.894 -123.645Z" fill="#CB1200"/>
<path d="M1225.63 200.988C1180.91 214.056 1058.97 249.441 961.643 277.632C746.182 339.886 622.071 375.859 524.876 404.05C488.581 414.474 454.732 424.312 449.431 425.78C444.265 427.248 441.003 428.57 442.226 428.57C444.265 428.717 632.403 401.7 1143.8 328.14C1224.41 316.541 1290.61 306.85 1290.88 306.557C1291.84 305.529 1283.54 256.048 1278.11 229.767C1270.9 195.556 1269.41 190.27 1267.09 189.83C1266.01 189.683 1247.38 194.675 1225.63 200.988Z" fill="#CB1200"/>
<path d="M-435.386 314.486C-438.241 333.426 -441.367 373.216 -442.455 404.784L-443.406 430.185L-13.9797 430.038L415.447 429.891L350.197 420.641C314.309 415.502 136.639 390.395 -44.7016 364.847C-226.042 339.446 -385.905 316.982 -400.178 314.926C-414.316 312.871 -427.909 310.962 -430.356 310.521C-434.434 309.787 -434.706 309.934 -435.386 314.486Z" fill="#CB1200"/>
<path d="M442.634 432.534C444.129 432.828 466.831 436.058 492.931 439.729C519.167 443.252 617.858 457.201 712.47 470.415C1089.7 523.567 1282.86 550.583 1286.81 551.023L1290.88 551.317L1292.52 533.698C1294.69 510.205 1297 465.423 1297 446.63V431.653L868.526 431.8C632.811 431.947 441.139 432.241 442.634 432.534Z" fill="#CB1200"/>
<path d="M402.531 435.471C396.142 436.499 238.727 459.257 52.4922 485.979C-133.606 512.702 -319.025 539.277 -359.398 545.15L-432.805 555.722L-432.397 560.861C-430.902 579.361 -414.725 670.981 -412.414 673.624C-412.278 673.917 -376.391 663.786 -332.755 651.159C-257.717 629.429 -189.205 609.607 -36.5469 565.412C-0.251572 554.988 63.9109 536.341 106.187 524.154C215.345 492.587 299.898 468.067 360.391 450.741C389.209 442.372 413.27 435.031 414.086 434.296C414.766 433.709 415.037 433.269 414.766 433.269C414.358 433.415 408.92 434.443 402.531 435.471Z" fill="#CB1200"/>
<path d="M439.236 435.03C439.644 435.324 467.783 448.098 501.767 463.221C585.641 500.515 630.908 520.777 796.751 594.631C831.551 610.194 870.022 627.373 882.392 632.806C894.762 638.238 933.233 655.417 968.033 670.981C1002.83 686.544 1041.3 703.723 1053.67 709.156C1066.04 714.588 1104.51 731.767 1139.31 747.33C1229.85 787.708 1231.48 788.442 1232.84 788.442C1235.42 788.442 1254.18 731.767 1263.83 695.06C1266.28 685.223 1268.45 676.413 1268.45 675.679C1268.45 674.945 1265.87 673.77 1262.75 672.889C1259.48 672.155 1221.15 660.996 1177.38 648.369C1133.6 635.595 1068.49 616.802 1032.6 606.377C996.716 595.952 932.825 577.452 890.548 565.265C848.272 553.079 789.003 535.9 758.689 527.091C698.741 509.765 582.65 476.142 497.689 451.622C468.191 442.959 442.77 435.618 441.275 435.177C439.78 434.59 438.828 434.59 439.236 435.03Z" fill="#CB1200"/>
<path d="M403.893 442.665C398.319 445.308 365.015 460.431 329.807 476.142C294.735 491.852 227.446 522.098 180.276 543.241C133.241 564.384 71.3897 592.135 42.9788 604.908C14.5678 617.682 -35.865 640.294 -69.1697 655.27C-102.474 670.246 -153.179 693.004 -181.998 705.925C-210.817 718.846 -265.463 743.366 -303.662 760.545C-341.724 777.576 -373.534 792.259 -374.213 792.846C-375.981 794.755 -362.795 826.91 -344.171 866.26C-335.607 884.466 -328.131 899.883 -327.451 900.617C-326.635 901.498 -325.548 901.351 -324.46 900.47C-323.509 899.589 -158.073 796.37 42.9788 670.98C244.166 545.591 410.554 441.784 412.729 440.316C418.71 436.352 415.447 437.086 403.893 442.665Z" fill="#CB1200"/>
<path d="M437.875 439.435C437.875 439.876 486.948 480.84 547.033 530.468C606.981 579.948 724.295 677.001 807.625 745.862C890.955 814.724 994.811 900.617 1038.45 936.59C1081.95 972.562 1118.11 1002.22 1118.65 1002.37C1119.6 1002.66 1146.65 961.55 1155.08 947.014C1163.24 932.919 1179.96 902.379 1179.69 902.086C1179.55 901.939 1013.3 798.279 810.344 671.715C607.389 545.15 440.458 440.903 439.642 440.169C438.691 439.288 437.875 438.995 437.875 439.435Z" fill="#CB1200"/>
<path d="M438.827 447.07C474.986 498.459 958.924 1176.94 959.603 1177.24C961.507 1177.83 1001.88 1140.68 1022.41 1119.39C1033.28 1108.23 1042.25 1098.69 1042.53 1098.25C1042.66 1097.81 906.044 949.804 738.705 769.354C571.502 588.904 436.652 443.84 438.827 447.07Z" fill="#CB1200"/>
<path d="M414.766 447.51C412.184 449.859 259.798 576.424 76.282 728.977C-107.234 881.382 -258.26 1006.92 -259.348 1007.95C-260.843 1009.56 -259.755 1011.76 -252.551 1021.45C-238.549 1040.1 -217.751 1065.5 -201.71 1083.27L-186.757 1099.86L117.063 771.556C284.13 591.106 420.612 443.399 420.204 443.399C419.796 443.399 417.349 445.308 414.766 447.51Z" fill="#CB1200"/>
<path d="M435.974 450.007C437.062 453.237 449.84 486.566 464.385 524.154C499.321 614.893 548.666 743.219 579.66 823.68C616.499 919.411 649.804 1005.89 697.518 1129.81C720.763 1190.31 744.824 1252.85 750.805 1268.56C756.922 1284.28 762.224 1297.78 762.768 1298.37C764.535 1300.43 811.705 1276.35 846.097 1255.79C857.788 1248.74 861.866 1245.51 861.322 1243.9C860.915 1242.72 801.102 1130.4 728.24 994.146C655.513 858.038 560.085 679.497 516.313 597.567C472.541 515.638 435.974 447.511 435.294 446.336C434.479 445.161 434.751 446.776 435.974 450.007Z" fill="#CB1200"/>
<path d="M431.757 452.943C432.437 459.11 461.935 699.318 530.312 1254.47C537.788 1314.96 544.041 1364.74 544.313 1365.03C545.129 1365.76 575.171 1360.48 596.241 1355.93C623.021 1349.91 653.335 1341.39 653.063 1339.78C652.927 1338.89 645.723 1309.53 637.023 1274.44C628.323 1239.35 614.593 1183.85 606.437 1151.1C590.124 1085.47 560.49 965.808 533.03 855.248C523.243 815.605 505.979 746.303 494.832 701.08C427.951 431.507 430.805 442.812 431.757 452.943Z" fill="#CB1200"/>
<path d="M164.508 809.291C23.6766 1008.09 -93.3656 1173.13 -95.4047 1176.21L-99.2109 1181.64L-83.1703 1194.12C-61.4203 1210.86 -6.63748 1248.74 -5.82186 1247.57C-5.68592 1247.42 58.3407 1127.61 136.369 981.519C323.011 632.365 420.342 450.3 421.158 448.832C421.43 448.245 421.43 447.804 421.158 447.804C420.886 447.804 305.339 610.488 164.508 809.291Z" fill="#CB1200"/>
<path d="M426.323 456.173C425.236 466.158 393.97 726.041 348.839 1099.71C331.303 1245.37 317.301 1365.03 317.981 1365.62C320.292 1367.82 385.95 1372.81 413.137 1372.81H428.362V910.308C428.362 655.858 428.09 447.804 427.818 447.804C427.546 447.804 426.867 451.622 426.323 456.173Z" fill="#CB1200"/>
<path d="M362.429 609.02C328.989 696.822 289.159 800.922 274.07 840.565C238.183 934.387 214.394 996.789 182.312 1080.63C167.903 1118.21 149.823 1165.79 141.939 1186.34C128.889 1220.26 98.7107 1299.25 97.2154 1303.22C95.992 1306.3 186.526 1339.78 199.033 1340.95L203.247 1341.24L217.112 1285.45C224.725 1254.76 240.494 1191.33 252.048 1144.5C300.034 951.272 315.259 890.046 331.844 822.946C341.495 784.184 358.623 715.175 369.906 669.512C415.309 486.566 424.281 450.153 423.873 449.86C423.601 449.566 396.006 521.217 362.429 609.02Z" fill="#CB1200"/>
</g>
<defs>
<clipPath id="clip0_10_256">
<rect width="864" height="1254" fill="white"/>
</clipPath>
</defs>
</svg>
