<svg width="2300" height="2301" viewBox="0 0 2300 2301" fill="none" xmlns="http://www.w3.org/2000/svg">
<rect width="2300" height="2300" transform="translate(0 0.426758)" fill="white"/>
<path d="M1153.86 558.944C1153.86 866.138 1153.5 1121.95 1152.97 1127.34C1152.25 1133.99 1152.43 1136.14 1153.68 1133.63C1154.58 1131.65 1171.65 1003.57 1191.59 848.892C1211.71 694.217 1244.4 442.893 1264.35 290.195C1284.29 137.496 1300.45 12.4629 1300.09 12.1036C1298.48 9.94783 1225.72 3.30095 1185.84 1.68414L1153.86 0.426621V558.944Z" fill="#CB1200"/>
<path d="M961.644 18.0313C935.954 22.1632 896.432 30.2472 870.024 36.5348C860.683 38.6906 856.551 40.487 856.731 42.2835C856.91 45.1578 868.048 86.8355 984.997 522.835C1001.88 586.07 1026.14 676.611 1038.89 724.038C1051.65 771.464 1074.28 855.897 1089.19 911.767C1104.1 967.637 1123.68 1040.39 1132.49 1073.45C1148.83 1134.71 1150.99 1142.07 1149.37 1130.93C1148.83 1127.52 1130.33 987.577 1108.05 820.148C1085.78 652.718 1052.54 403.371 1034.4 266.301C1016.08 129.232 1001.17 16.2349 1001.17 15.3367C1001.17 12.642 990.387 13.3606 961.644 18.0313Z" fill="#CB1200"/>
<path d="M1448.66 48.9319C1438.06 88.6335 1394.59 251.033 1373.03 331.514C1347.16 427.984 1329.74 493.195 1276.2 692.601C1263.45 740.567 1239.02 831.467 1222.13 894.702C1163.57 1112.97 1157.64 1135.43 1158.18 1135.79C1158.54 1136.15 1162.85 1126.09 1168.06 1113.51C1173.09 1100.76 1270.1 865.78 1383.45 591.102L1589.69 91.6875L1581.06 87.7353C1565.25 80.3699 1510.64 60.6089 1482.44 51.9859C1467.17 47.3151 1453.87 43.1833 1452.62 42.824C1451.36 42.285 1449.74 44.8001 1448.66 48.9319Z" fill="#CB1200"/>
<path d="M685.885 98.6933C660.196 109.831 610.614 134.263 591.212 145.042L577.38 152.946L788.283 518.345C904.514 719.368 1031.88 940.332 1071.76 1009.14C1111.47 1077.94 1144.16 1133.99 1144.34 1133.81C1144.7 1133.45 1136.44 1113.15 1126.2 1088.54C1107.33 1043.27 1054.34 915.721 977.091 729.788C953.737 673.738 915.652 582.119 892.298 525.89C868.944 469.841 830.32 376.784 806.248 318.939C782.175 261.093 751.097 186.54 737.264 152.946C723.252 119.532 711.934 91.5075 711.934 90.6092C711.934 87.7349 707.802 88.9924 685.885 98.6933Z" fill="#CB1200"/>
<path d="M1726.22 161.208C1724.78 163.544 1666.03 265.223 1595.79 387.202C1403.21 720.804 1166.26 1131.29 1163.21 1136.32C1160.69 1140.46 1160.69 1140.64 1163.21 1138.12C1171.47 1130.04 1851.07 239.354 1849.81 238.097C1836.16 225.701 1734.48 157.256 1729.63 157.256C1729.27 157.256 1727.65 159.053 1726.22 161.208Z" fill="#CB1200"/>
<path d="M441.743 247.62C395.934 284.986 340.064 334.029 340.064 336.904C340.064 337.443 520.428 518.166 741.033 738.411C961.458 958.836 1140.21 1136.86 1138.41 1134.17C1123.32 1112.79 451.983 241.871 450.546 241.871C449.648 241.871 445.516 244.386 441.743 247.62Z" fill="#CB1200"/>
<path d="M1564.35 742.902C1343.92 963.327 1164.46 1143.15 1165.54 1142.79C1170.21 1140.64 1290.03 1090.52 1355.96 1063.03C1396.56 1046.32 1485.49 1009.32 1553.57 980.932C1621.84 952.548 1708.25 916.619 1745.79 900.99C1783.34 885.361 1860.23 853.384 1916.45 830.03C1972.86 806.676 2061.79 769.669 2114.06 747.932C2166.52 726.195 2209.82 707.871 2210.53 707.152C2212.33 705.536 2187.18 651.103 2169.4 618.048C2146.76 576.191 2146.58 575.832 2144.25 576.55C2143.17 577.089 1928.13 701.044 1666.39 852.126C1404.82 1003.21 1187.45 1128.78 1183.5 1130.94C1179.55 1133.27 1177.21 1134.35 1178.11 1133.27C1179.19 1132.37 1376.26 980.393 1616.45 795.897C1856.63 611.401 2054.96 458.523 2057.3 456.188L2061.61 452.236L2052.81 440.738C2030.17 411.276 1971.25 344.448 1966.76 342.832C1965.86 342.472 1784.59 522.657 1564.35 742.902Z" fill="#CB1200"/>
<path d="M224.016 469.481C205.513 494.631 185.213 524.632 169.045 550.501C158.086 568.106 155.571 573.496 157.188 574.933C158.446 576.19 379.23 703.739 647.8 858.773C916.37 1013.63 1135.72 1140.64 1135.36 1141C1135.18 1141.35 1117.57 1134.35 1096.38 1125.73C1037.09 1101.29 944.036 1063.03 852.057 1024.94C806.068 1005.9 755.228 984.884 738.88 978.237C722.533 971.59 671.693 950.571 625.704 931.529C579.715 912.487 528.875 891.468 512.527 884.821C496.179 878.174 457.376 862.186 426.297 849.251C270.365 784.938 198.147 755.117 153.236 736.614C126.11 725.296 100.959 714.877 97.3663 713.44L90.7194 710.745L84.9707 724.578C71.4973 757.093 40.4187 848.174 42.3948 849.97C42.5744 850.15 79.2221 860.03 123.595 871.887C208.926 894.702 312.941 922.547 480.191 967.458C536.061 982.369 620.494 1005 667.92 1017.76C926.43 1086.92 1128.35 1141.18 1134.64 1142.97C1143.08 1145.49 1134.28 1137.4 1096.91 1109.02C1062.42 1082.79 770.857 859.491 672.412 784.22C584.565 716.853 285.276 487.985 263.359 471.278C249.346 460.678 237.669 451.876 237.31 451.876C236.951 452.055 231.023 459.78 224.016 469.481Z" fill="#CB1200"/>
<path d="M2205.69 866.677C2146.59 882.665 1985.44 925.96 1856.82 960.452C1572.08 1036.62 1408.06 1080.63 1279.62 1115.13C1231.65 1127.88 1186.92 1139.92 1179.91 1141.71C1173.09 1143.51 1168.78 1145.13 1170.39 1145.13C1173.09 1145.31 1421.72 1112.25 2097.54 1022.25C2204.07 1008.06 2291.56 996.201 2291.92 995.842C2293.18 994.584 2282.22 934.044 2275.03 901.887C2265.51 860.03 2263.54 853.563 2260.48 853.024C2259.04 852.844 2234.43 858.952 2205.69 866.677Z" fill="#CB1200"/>
<path d="M10.5991 1005.54C6.82651 1028.72 2.69466 1077.4 1.2575 1116.02L-2.28882e-05 1147.1L567.5 1146.92L1135 1146.74L1048.77 1135.43C1001.34 1129.14 766.547 1098.42 526.9 1067.16C287.253 1036.08 75.99 1008.6 57.1272 1006.08C38.4441 1003.57 20.4796 1001.23 17.2459 1000.69C11.8566 999.794 11.4973 999.974 10.5991 1005.54Z" fill="#CB1200"/>
<path d="M1170.93 1149.98C1172.9 1150.34 1202.9 1154.29 1237.4 1158.78C1272.07 1163.09 1402.49 1180.16 1527.52 1196.33C2026.04 1261.36 2281.32 1294.41 2286.53 1294.95L2291.92 1295.31L2294.07 1273.75C2296.95 1245.01 2300 1190.22 2300 1167.22V1148.9L1733.76 1149.08C1422.25 1149.26 1168.95 1149.62 1170.93 1149.98Z" fill="#CB1200"/>
<path d="M1117.93 1153.57C1109.49 1154.83 901.458 1182.67 655.343 1215.37C409.408 1248.06 164.372 1280.58 111.017 1287.77L14.0087 1300.7L14.5476 1306.99C16.5237 1329.62 37.9015 1441.72 40.9555 1444.96C41.1351 1445.31 88.5616 1432.92 146.228 1417.47C245.392 1390.88 335.933 1366.63 537.675 1312.56C585.641 1299.8 670.433 1276.99 726.303 1262.08C870.559 1223.45 982.298 1193.45 1062.24 1172.25C1100.33 1162.01 1132.12 1153.03 1133.2 1152.13C1134.1 1151.41 1134.46 1150.88 1134.1 1150.88C1133.56 1151.06 1126.37 1152.31 1117.93 1153.57Z" fill="#CB1200"/>
<path d="M1166.44 1153.03C1166.98 1153.39 1204.16 1169.02 1249.08 1187.52C1359.92 1233.15 1419.74 1257.95 1638.91 1348.31C1684.9 1367.35 1735.74 1388.37 1752.08 1395.02C1768.43 1401.66 1819.27 1422.68 1865.26 1441.72C1911.25 1460.77 1962.09 1481.78 1978.44 1488.43C1994.78 1495.08 2045.62 1516.1 2091.61 1535.14C2211.26 1584.54 2213.41 1585.44 2215.21 1585.44C2218.62 1585.44 2243.41 1516.1 2256.17 1471.18C2259.4 1459.15 2262.28 1448.37 2262.28 1447.47C2262.28 1446.57 2258.86 1445.14 2254.73 1444.06C2250.42 1443.16 2199.76 1429.51 2141.91 1414.06C2084.07 1398.43 1998.02 1375.43 1950.59 1362.68C1903.17 1349.92 1818.73 1327.29 1762.86 1312.38C1706.99 1297.47 1628.67 1276.45 1588.61 1265.67C1509.38 1244.47 1355.96 1203.33 1243.69 1173.33C1204.7 1162.73 1171.11 1153.75 1169.13 1153.21C1167.16 1152.49 1165.9 1152.49 1166.44 1153.03Z" fill="#CB1200"/>
<path d="M1119.73 1162.37C1112.37 1165.61 1068.35 1184.11 1021.83 1203.33C975.478 1222.55 886.553 1259.56 824.216 1285.43C762.059 1311.3 680.32 1345.25 642.774 1360.88C605.228 1376.51 538.58 1404.17 494.567 1422.5C450.554 1440.82 383.546 1468.67 345.461 1484.48C307.376 1500.29 235.159 1530.29 184.678 1551.3C134.378 1572.14 92.3405 1590.11 91.4423 1590.83C89.1069 1593.16 106.533 1632.5 131.144 1680.65C142.462 1702.92 152.342 1721.79 153.24 1722.69C154.318 1723.76 155.755 1723.58 157.193 1722.51C158.45 1721.43 377.079 1595.14 642.774 1441.72C908.65 1288.3 1128.54 1161.29 1131.41 1159.5C1139.31 1154.65 1135 1155.55 1119.73 1162.37Z" fill="#CB1200"/>
<path d="M1164.64 1158.42C1164.64 1158.96 1229.49 1209.08 1308.89 1269.8C1388.12 1330.34 1543.15 1449.09 1653.27 1533.34C1763.4 1617.59 1900.65 1722.69 1958.31 1766.7C2015.8 1810.71 2063.58 1847 2064.3 1847.18C2065.56 1847.54 2101.31 1797.24 2112.45 1779.45C2123.23 1762.21 2145.32 1724.84 2144.96 1724.48C2144.78 1724.3 1925.08 1597.47 1656.87 1442.62C1388.66 1287.77 1168.05 1160.22 1166.97 1159.32C1165.72 1158.24 1164.64 1157.88 1164.64 1158.42Z" fill="#CB1200"/>
<path d="M1165.9 1167.76C1213.68 1230.64 1853.22 2060.78 1854.12 2061.14C1856.64 2061.86 1909.99 2016.41 1937.12 1990.36C1951.49 1976.71 1963.35 1965.03 1963.7 1964.49C1963.88 1963.95 1783.34 1782.87 1562.2 1562.08C1341.23 1341.3 1163.02 1163.81 1165.9 1167.76Z" fill="#CB1200"/>
<path d="M1134.1 1168.3C1130.69 1171.18 929.303 1326.03 686.782 1512.68C444.26 1699.15 244.674 1852.75 243.237 1854.01C241.261 1855.98 242.698 1858.68 252.219 1870.54C270.723 1893.35 298.208 1924.43 319.407 1946.17L339.168 1966.47L740.675 1564.78C961.46 1343.99 1141.82 1163.27 1141.28 1163.27C1140.75 1163.27 1137.51 1165.61 1134.1 1168.3Z" fill="#CB1200"/>
<path d="M1162.13 1171.36C1163.57 1175.31 1180.45 1216.09 1199.68 1262.08C1245.84 1373.1 1311.06 1530.11 1352.02 1628.55C1400.7 1745.68 1444.71 1851.49 1507.77 2003.11C1538.49 2077.13 1570.28 2153.66 1578.19 2172.88C1586.27 2192.1 1593.28 2208.63 1594 2209.35C1596.33 2211.86 1658.67 2182.4 1704.12 2157.25C1719.57 2148.63 1724.96 2144.68 1724.24 2142.7C1723.7 2141.26 1644.66 2003.83 1548.37 1837.12C1452.26 1670.59 1326.15 1452.14 1268.3 1351.9C1210.45 1251.66 1162.13 1168.3 1161.23 1166.87C1160.15 1165.43 1160.51 1167.4 1162.13 1171.36Z" fill="#CB1200"/>
<path d="M1156.55 1174.95C1157.45 1182.49 1196.44 1476.39 1286.8 2155.63C1296.68 2229.65 1304.94 2290.55 1305.3 2290.91C1306.38 2291.8 1346.08 2285.34 1373.93 2279.77C1409.32 2272.4 1449.38 2261.98 1449.02 2260.01C1448.84 2258.93 1439.32 2223 1427.82 2180.06C1416.32 2137.13 1398.18 2069.22 1387.4 2029.16C1365.84 1948.86 1326.68 1802.45 1290.39 1667.18C1277.46 1618.67 1254.64 1533.88 1239.91 1478.55C1151.52 1148.72 1155.3 1162.55 1156.55 1174.95Z" fill="#CB1200"/>
<path d="M803.379 1610.95C617.266 1854.19 462.591 2056.11 459.896 2059.88L454.866 2066.53L476.065 2081.8C504.808 2102.28 577.205 2148.63 578.283 2147.19C578.462 2147.01 663.076 2000.42 766.192 1821.67C1012.85 1394.48 1141.47 1171.72 1142.55 1169.92C1142.91 1169.2 1142.91 1168.66 1142.55 1168.66C1142.19 1168.66 989.492 1367.71 803.379 1610.95Z" fill="#CB1200"/>
<path d="M1149.38 1178.9C1147.94 1191.12 1106.62 1509.09 1046.98 1966.29C1023.8 2144.49 1005.3 2290.91 1006.2 2291.62C1009.25 2294.32 1096.02 2300.43 1131.95 2300.43H1152.07V1734.54C1152.07 1423.22 1151.71 1168.66 1151.35 1168.66C1150.99 1168.66 1150.1 1173.33 1149.38 1178.9Z" fill="#CB1200"/>
<path d="M1064.94 1365.91C1020.74 1473.34 968.107 1600.71 948.167 1649.21C900.74 1764.01 869.302 1840.36 826.906 1942.93C807.864 1988.92 783.971 2047.13 773.551 2072.28C756.305 2113.78 716.424 2210.42 714.448 2215.28C712.831 2219.05 832.475 2260.01 849.002 2261.44L854.571 2261.8L872.895 2193.54C882.955 2155.99 903.794 2078.39 919.064 2021.08C982.479 1784.67 1002.6 1709.75 1024.52 1627.65C1037.27 1580.23 1059.91 1495.8 1074.82 1439.93C1134.82 1216.09 1146.68 1171.54 1146.14 1171.18C1145.78 1170.82 1109.31 1258.48 1064.94 1365.91Z" fill="#CB1200"/>
</svg>
