<svg width="823" height="1143" viewBox="0 0 823 1143" fill="none" xmlns="http://www.w3.org/2000/svg">
<circle cx="411.333" cy="731.333" r="401.333" fill="black" stroke="white" stroke-width="20"/>
<path fill-rule="evenodd" clip-rule="evenodd" d="M275.742 479.907C275.742 479.907 294.018 480.401 281.168 357.294C274.736 295.874 289.734 281.493 306.375 282.525C310.751 282.574 322.218 284.868 333.077 293.656C336.014 295.668 338.835 297.844 341.528 300.172C346.998 299.887 352.481 300.158 357.893 300.98C372.658 304.645 381.2 315.173 383.626 319.979C384.29 324.246 383.961 328.611 382.666 332.734L382.936 340.264C385.974 344.968 396.658 343.672 412.641 341.733C451.152 337.061 520.428 328.658 587.645 391.449C692.689 489.624 650.575 604.187 650.575 604.187C650.575 604.187 588.725 902.63 490.063 938.454C490.063 938.454 431.794 883.963 367.08 1003.25C302.365 1122.54 174.503 951.868 216.994 844.13C216.988 844.123 216.951 844.102 216.885 844.067C214.027 842.518 157.024 811.62 275.742 479.907ZM472.813 672.467C603.23 700.785 597.582 517.418 597.582 517.418C581.267 418.526 495.594 448.882 459.642 464.313C423.69 479.744 342.397 644.148 472.813 672.467Z" fill="white"/>
<path d="M480.233 270.356L513.728 6.12333L414.308 369.776C506.284 344.257 619.767 406.995 653.905 500.625L732.77 258.128L658.87 382.535L709.377 187.949L635.477 373.497L685.984 131.062L614.211 342.13L662.591 91.7193L578.59 315.015L624.858 63.6116L545.095 298.534L595.602 40.6803L518.513 283.116L559.45 15.6925L480.233 270.356Z" fill="#CB1200"/>
<ellipse rx="18.0763" ry="19.1396" transform="matrix(-1 0 0 1 472.525 572.247)" fill="#CB1200"/>
</svg>
