<svg width="680" height="1016" viewBox="0 0 680 1016" fill="none" xmlns="http://www.w3.org/2000/svg">
<path d="M441.344 853.819C416.316 890.668 325.787 931.543 285.161 921.286C234.378 908.465 247.113 797.115 339.436 780.666C413.293 767.507 413.311 818.064 441.344 853.819Z" fill="#9C9C9C"/>
<rect x="345.484" y="392.096" width="210.214" height="225.752" fill="black"/>
<path fill-rule="evenodd" clip-rule="evenodd" d="M242.277 438.621C242.277 438.621 258.98 439.073 247.236 326.557C241.357 270.42 255.065 257.276 270.274 258.219C274.274 258.264 284.754 260.36 294.679 268.393C297.363 270.232 299.942 272.22 302.404 274.348C307.402 274.088 312.414 274.335 317.361 275.086C330.856 278.437 338.663 288.059 340.88 292.451C341.486 296.351 341.186 300.341 340.003 304.109L340.249 310.991C343.026 315.29 352.791 314.106 367.399 312.334C402.597 308.064 465.914 300.384 527.348 357.773C623.356 447.502 584.865 552.211 584.865 552.211C584.865 552.211 528.336 824.98 438.161 857.722C438.161 857.722 384.904 807.919 325.757 916.945C266.609 1025.97 149.746 869.982 188.582 771.513C188.577 771.506 188.543 771.487 188.483 771.455C185.87 770.039 133.771 741.8 242.277 438.621ZM422.395 614.616C541.592 640.499 536.43 472.906 536.43 472.906C521.519 382.521 443.216 410.266 410.357 424.369C377.498 438.472 303.198 588.734 422.395 614.616Z" fill="white"/>
<path d="M429.176 247.099L459.789 5.59658L368.922 337.966C452.986 314.642 556.707 371.984 587.907 457.559L659.988 235.923L592.445 349.628L638.608 171.781L571.065 341.367L617.227 119.787L551.628 312.698L595.847 83.8292L519.071 287.916L561.359 58.1395L488.458 272.853L534.621 37.1808L464.162 258.761L501.578 14.3425L429.176 247.099Z" fill="#CB1200"/>
<ellipse rx="16.5213" ry="17.4931" transform="matrix(-1 0 0 1 422.131 523.019)" fill="#CB1200"/>
<path d="M292.695 772.813C292.098 779.348 285.91 784.124 278.872 783.482C271.835 782.84 266.613 777.022 267.209 770.487C267.806 763.952 273.994 759.175 281.032 759.817C285.916 765.114 292.061 768.935 292.695 772.813Z" fill="#9C9C9C"/>
<path d="M193.999 760.001C193.609 764.274 193.024 771.913 188.5 771.5C187.499 771 186.499 770.5 185 769.001C181 764.501 180.499 762.001 179.499 759C185 760.5 194.411 754.339 193.999 760.001Z" fill="#9C9C9C"/>
</svg>
