<svg width="824" height="1042" viewBox="0 0 824 1042" fill="none" xmlns="http://www.w3.org/2000/svg">
<circle cx="411.669" cy="630.333" r="401.333" fill="black" stroke="white" stroke-width="20"/>
<path d="M493.344 853.819C468.316 890.668 377.787 931.543 337.161 921.286C286.378 908.465 299.113 797.115 391.436 780.666C465.293 767.507 465.311 818.064 493.344 853.819Z" fill="#9C9C9C"/>
<rect x="397.484" y="392.096" width="210.214" height="225.752" fill="black"/>
<path fill-rule="evenodd" clip-rule="evenodd" d="M294.277 438.621C294.277 438.621 310.98 439.073 299.236 326.557C293.357 270.42 307.065 257.276 322.274 258.219C326.274 258.264 336.754 260.36 346.679 268.393C349.363 270.232 351.942 272.22 354.404 274.348C359.402 274.088 364.414 274.335 369.361 275.086C382.856 278.437 390.663 288.059 392.88 292.451C393.486 296.351 393.186 300.341 392.003 304.109L392.249 310.991C395.026 315.29 404.791 314.106 419.399 312.334C454.597 308.064 517.914 300.384 579.348 357.773C675.356 447.502 636.865 552.211 636.865 552.211C636.865 552.211 580.336 824.98 490.161 857.722C490.161 857.722 436.904 807.919 377.757 916.945C318.609 1025.97 201.746 869.982 240.582 771.513C240.577 771.506 240.543 771.487 240.483 771.455C237.87 770.039 185.771 741.8 294.277 438.621ZM474.395 614.616C593.592 640.499 588.43 472.906 588.43 472.906C573.519 382.521 495.216 410.266 462.357 424.369C429.498 438.472 355.198 588.734 474.395 614.616Z" fill="white"/>
<path d="M481.176 247.099L511.789 5.59658L420.922 337.966C504.986 314.642 608.707 371.984 639.907 457.559L711.988 235.923L644.445 349.628L690.608 171.781L623.065 341.367L669.227 119.787L603.628 312.698L647.847 83.8292L571.071 287.916L613.359 58.1395L540.458 272.853L586.621 37.1808L516.162 258.761L553.578 14.3425L481.176 247.099Z" fill="#CB1200"/>
<ellipse rx="16.5213" ry="17.4931" transform="matrix(-1 0 0 1 474.131 523.019)" fill="#CB1200"/>
<path d="M344.695 772.813C344.098 779.348 337.91 784.124 330.872 783.482C323.835 782.84 318.613 777.022 319.209 770.487C319.806 763.952 325.994 759.175 333.032 759.817C337.916 765.114 344.061 768.935 344.695 772.813Z" fill="#9C9C9C"/>
<path d="M245.999 760.001C245.609 764.274 245.024 771.913 240.5 771.5C239.499 771 238.499 770.5 237 769.001C233 764.501 232.499 762.001 231.499 759C237 760.5 246.411 754.339 245.999 760.001Z" fill="#9C9C9C"/>
</svg>
