<svg width="545" height="338" viewBox="0 0 545 338" fill="none" xmlns="http://www.w3.org/2000/svg">
<g clip-path="url(#clip0_34_3)">
<path fill-rule="evenodd" clip-rule="evenodd" d="M206.419 224.172C211.491 223.889 216.475 222.776 221.176 220.876C222.851 225.611 235.842 232.747 280.575 242.423C280.575 242.423 304.478 245.5 321.223 228.93C321.223 228.93 279.294 238.161 266.257 229.87C253.537 221.782 242.499 213.732 230.551 213.666C231.105 212.621 231.402 211.455 231.417 210.265C231.433 209.075 231.166 207.895 230.639 206.825C225.669 195.742 204.5 205.847 188.879 184.568C248.598 156.867 376.928 97.7485 394.314 89.6836L396.342 94.2059L453.994 71.9793L439.181 38.8884L384.263 67.2268L386.291 71.749L208.727 149.342C209.39 140.2 207.799 129.275 198.347 123.179C196.94 122.276 195.567 121.487 194.231 120.803L194.499 120.678C202.887 113.136 204.173 99.0614 206.612 83.869C209.05 68.6767 243.641 49.6962 243.641 49.6962C220.223 46.5594 206.721 64.3249 206.721 64.3249C187.778 95.2532 182.543 110.164 182.868 117.064C173.947 116.032 166.361 119.955 159.613 127.445C154.227 132.284 150.268 133.962 147.773 134.936C146.081 130.214 143.802 116.314 123.109 103.165C123.109 103.165 98.666 81.9428 77.0385 91.424C77.0385 91.424 96.3074 97.8182 118.955 109.303C124.386 120.926 135.39 132.439 135.467 147.699C127.461 150.194 118.343 149.884 108.331 146.939C103.341 145.478 96.4664 145.609 89.4618 147.687C92.5986 141.047 90.5479 130.642 29.0611 148.144C29.0611 148.144 8.38472 156.396 5.29829 180.178C5.29829 180.178 32.6772 151.628 47.9699 153.486C57.6512 154.661 66.7704 156.146 74.5599 155.541C60.6668 166.915 52.5003 189.13 69.0979 226.139C84.1609 259.757 103 269.922 119.894 268.702C114.53 274.661 109.658 282.579 104.241 290.677C94.7237 304.937 51.6664 306.991 51.6664 306.991C73.3403 321.898 94.9884 310.548 94.9884 310.548C147.148 275.901 147.349 264.628 141.356 260.986C148.031 256.59 153.763 250.891 158.221 244.218C162.412 237.836 166.815 233.279 171.191 230.057C172.74 238.937 179.344 249.512 183.681 260.098C185.976 275.353 166.384 312.787 166.384 312.787C190.468 302.934 192.912 278.323 192.912 278.323C192.843 249.918 190.97 232.942 188.354 223.113L206.419 224.172ZM74.3876 165.844C74.3988 166.178 74.475 166.508 74.6119 166.813C74.8908 167.43 75.3985 167.912 76.0241 168.155C76.6496 168.398 77.3423 168.382 77.9508 168.111L96.1391 159.943C96.7173 159.65 97.1592 159.142 97.3728 158.524C97.5864 157.907 97.5553 157.227 97.2858 156.627C97.0164 156.027 96.5295 155.552 95.9264 155.302C95.3233 155.052 94.6505 155.046 94.048 155.284L75.862 163.457C75.561 163.592 75.2899 163.786 75.0642 164.028C74.8384 164.27 74.6625 164.555 74.5464 164.866C74.4303 165.178 74.3763 165.51 74.3876 165.844ZM66.6355 177.732C66.4012 178.361 66.4239 179.061 66.6988 179.679L66.7035 179.689C66.9827 180.302 67.4893 180.782 68.1128 181.024C68.7364 181.265 69.4265 181.249 70.0328 180.978L88.2261 172.808C88.5423 172.683 88.8295 172.494 89.0703 172.252C89.311 172.011 89.5003 171.722 89.6268 171.404C89.7533 171.085 89.8144 170.743 89.8063 170.399C89.7981 170.054 89.7211 169.714 89.5796 169.399C89.4382 169.084 89.2354 168.801 88.9835 168.566C88.7315 168.331 88.4356 168.15 88.1137 168.033C87.7918 167.916 87.4504 167.866 87.1103 167.886C86.7702 167.906 86.4385 167.996 86.1349 168.15L67.949 176.323C67.3421 176.597 66.8698 177.103 66.6355 177.732ZM67.8225 191.299L86.0083 183.125C86.3094 182.99 86.5805 182.796 86.8062 182.555C87.0319 182.313 87.2079 182.028 87.324 181.717C87.4401 181.405 87.494 181.073 87.4828 180.739C87.4716 180.404 87.3954 180.075 87.2585 179.769C87.1217 179.464 86.927 179.188 86.6854 178.957C86.4438 178.726 86.1601 178.545 85.8505 178.425C85.5409 178.304 85.2115 178.246 84.881 178.254C84.5506 178.261 84.2255 178.335 83.9245 178.47L65.7363 186.638C65.1576 186.93 64.7149 187.437 64.5005 188.055C64.2861 188.672 64.3165 189.352 64.5853 189.953C64.8541 190.553 65.3407 191.028 65.9437 191.279C66.5467 191.53 67.2196 191.537 67.8225 191.299ZM167.572 132.22C165.278 127.111 173.08 123.603 175.374 128.712C177.668 133.821 169.861 137.332 167.572 132.22ZM182.779 130.258C180.49 125.147 188.289 121.646 190.583 126.755C192.877 131.865 185.073 135.368 182.779 130.258ZM109.666 218.133C111.204 218.731 112.906 218.691 114.402 218.024C115.894 217.349 117.054 216.101 117.63 214.554C118.205 213.007 118.148 211.286 117.472 209.767L112.847 199.443C112.524 198.669 112.052 197.966 111.458 197.376C110.864 196.787 110.161 196.322 109.39 196.01C108.618 195.698 107.794 195.544 106.966 195.559C106.139 195.573 105.324 195.755 104.57 196.093C103.817 196.432 103.14 196.921 102.579 197.53C102.018 198.14 101.585 198.858 101.305 199.643C101.026 200.427 100.905 201.262 100.95 202.099C100.996 202.935 101.206 203.755 101.57 204.511L106.194 214.835C106.88 216.35 108.128 217.536 109.666 218.133ZM141.177 210.089C144.807 210.727 148.53 210.265 151.877 208.761C156.365 206.745 159.858 203.001 161.586 198.352C163.315 193.704 163.139 188.532 161.096 183.974C159.573 180.575 157.091 177.697 153.965 175.706C150.838 173.715 147.208 172.699 143.532 172.787C139.857 172.875 136.302 174.063 133.316 176.201C130.33 178.339 128.049 181.33 126.759 184.797C125.47 188.264 125.231 192.05 126.072 195.678C126.913 199.305 128.798 202.61 131.486 205.175C134.175 207.741 137.547 209.45 141.177 210.089Z" fill="white"/>
</g>
<defs>
<clipPath id="clip0_34_3">
<rect width="545" height="338" fill="white"/>
</clipPath>
</defs>
</svg>
