<svg width="545" height="338" viewBox="0 0 545 338" fill="none" xmlns="http://www.w3.org/2000/svg">
<g clip-path="url(#clip0_34_3)">
<path d="M128.943 26.0953C123.394 35.2232 163.31 79.9361 167.53 81.7649C173.406 84.2851 172.249 79.8811 173.587 77.6854L363.808 196.841C361.063 202.707 356.376 208.546 348.446 209.401C331.862 211.202 329.546 197.872 329.546 197.872C329.546 197.872 317.447 190.804 320.082 213.438C320.328 215.571 320.824 217.668 321.559 219.685C317.799 219.169 298.505 215.998 290.946 204.581C282.657 192.046 299.877 230.435 327.157 228.847C337.003 239.68 354.72 243.706 366.609 243.683C367.598 243.677 368.586 243.723 369.57 243.824C366.433 247.33 363.507 254.895 361.754 269.664C361.754 269.664 361.842 281.456 375.337 288.853C375.337 288.853 366.967 273.835 371.664 267.098C375.564 261.499 381.937 255.127 383.173 249.701C388.873 254.799 392.043 262.533 392.861 270.541C393.435 276.14 400.484 288.803 412.088 296.29C408.475 300.429 410.591 308.982 447.607 325.122C447.607 325.122 463.691 329.836 479.297 314.435C479.297 314.435 447.676 320.777 440.443 311.596C437.819 308.271 435.348 304.969 432.859 302.08C448.046 301.261 466.592 289.824 486.737 256.693C507.73 222.173 508.625 200.019 501.447 186.226C505.652 187.659 510.481 188.708 515.431 189.965C526.767 192.826 533.91 224.322 533.91 224.322C541.557 203.77 530.678 190.993 530.678 190.993C495.699 159.086 489.827 166.727 489.18 173.085C476.938 165.286 461.387 164.688 455.921 166.842C448.019 169.958 439.162 170.606 431.772 167.293C435.436 163.079 436.633 153.995 438.731 147.411C441.228 139.58 458.241 137.15 458.241 137.15C444.176 130.904 434.764 137.996 434.764 137.996C426.652 145.887 422.26 151.784 420.243 156.192C420.184 156.072 420.127 155.957 420.068 155.837C414.711 145.401 403.237 131.743 389.392 127.718C378.588 102.243 336.011 104.58 351.024 106.214C364.992 107.73 376.92 124.251 378.641 126.737C376.327 126.981 374.054 127.524 371.879 128.351C350.6 136.379 362.418 143.909 362.418 143.909C362.418 143.909 375.307 139.846 381.315 155.433C384.539 163.78 380.355 171.358 375.777 176.626L182.998 62.2139C176.229 58.1964 183.629 54.9687 180.573 47.881C177.516 40.7933 158.566 42.0366 147.932 31.9214C147.142 31.1747 136.275 14.0364 128.943 26.0953ZM471.545 176.76C475.952 169.519 487.166 176.354 482.762 183.599C478.358 190.844 467.141 184.005 471.545 176.76V176.76ZM487.45 189.173C490.34 184.421 497.7 188.91 494.81 193.662C491.92 198.413 484.562 193.929 487.45 189.173V189.173ZM450.586 219.109C451.275 219.527 451.875 220.077 452.35 220.728C452.826 221.379 453.169 222.118 453.359 222.902C453.549 223.686 453.583 224.499 453.458 225.297C453.334 226.094 453.053 226.858 452.633 227.546L446.885 237.002C446.04 238.394 444.677 239.392 443.096 239.778C441.515 240.163 439.847 239.904 438.457 239.057C437.068 238.211 436.071 236.846 435.687 235.263C435.302 233.681 435.562 232.01 436.407 230.618L442.162 221.165C443.011 219.778 444.374 218.784 445.952 218.399C447.53 218.014 449.196 218.269 450.586 219.109V219.109ZM492.237 204.233C493.771 201.705 497.682 204.09 496.16 206.643C494.638 209.197 490.71 206.752 492.237 204.233V204.233ZM427.634 189.69C431.827 192.246 435.17 195.991 437.238 200.45C439.306 204.91 440.006 209.883 439.252 214.742C438.497 219.601 436.32 224.127 432.997 227.747C429.674 231.368 425.353 233.92 420.582 235.082C415.81 236.244 410.802 235.963 406.191 234.275C401.58 232.586 397.572 229.566 394.675 225.597C391.778 221.627 390.122 216.886 389.917 211.973C389.711 207.061 390.964 202.197 393.519 197.997C396.944 192.366 402.462 188.327 408.86 186.769C415.258 185.211 422.011 186.262 427.634 189.69V189.69Z" fill="#CB1200"/>
</g>
<defs>
<clipPath id="clip0_34_3">
<rect width="545" height="338" fill="white"/>
</clipPath>
</defs>
</svg>
